M48
; DRILL file {KiCad 8.0.4} date 2025-10-07T20:14:53-0300
; FORMAT={-:-/ absolute / inch / decimal}
; #@! TF.CreationDate,2025-10-07T20:14:53-03:00
; #@! TF.GenerationSoftware,Kicad,Pcbnew,8.0.4
; #@! TF.FileFunction,Plated,1,2,PTH
FMAT,2
INCH
; #@! TA.AperFunction,Plated,PTH,ViaDrill
T1C0.0157
; #@! TA.AperFunction,Plated,PTH,ComponentDrill
T2C0.0157
; #@! TA.AperFunction,Plated,PTH,ViaDrill
T3C0.0236
; #@! TA.AperFunction,Plated,PTH,ComponentDrill
T4C0.0394
; #@! TA.AperFunction,Plated,PTH,ComponentDrill
T5C0.0591
%
G90
G05
T1
X3.1142Y-4.6142
X3.1496Y-3.878
X3.1614Y-4.937
X3.189Y-4.6102
X3.2677Y-4.2736
X3.2677Y-4.9961
X3.4229Y-4.4629
X3.5073Y-4.7809
X3.6024Y-3.9114
X3.6811Y-4.2021
X3.7008Y-3.9114
X3.7244Y-4.0171
X4.1142Y-3.9069
X4.1207Y-3.9633
X4.2283Y-3.2323
X4.2756Y-4.5276
X4.3602Y-4.6096
X4.376Y-3.2736
X4.4179Y-4.0512
X4.4179Y-4.8406
X4.5118Y-3.9069
X4.5138Y-3.9961
X4.5336Y-4.0512
X4.5336Y-4.8406
X4.5472Y-4.458
X4.5643Y-3.9633
X4.5898Y-4.2815
X4.6299Y-3.1811
X4.6472Y-4.0512
X4.6472Y-4.8406
X4.7224Y-4.1909
X4.7402Y-4.5447
X4.7717Y-3.8124
X4.7931Y-3.3124
X4.7931Y-3.6628
X4.8406Y-4.0197
X4.8904Y-4.0958
X5.1693Y-3.6273
X5.2087Y-3.71
X5.2441Y-3.7415
X5.2559Y-4.025
X5.311Y-3.773
X5.3425Y-3.8517
X5.3425Y-4.0801
X5.3465Y-3.3832
X5.3465Y-3.5053
X5.4094Y-4.2297
X5.5Y-3.9021
X5.5059Y-3.1811
X5.5472Y-3.8943
X5.5787Y-3.8706
X5.5884Y-3.8321
X5.622Y-3.4974
X5.626Y-3.3701
X5.626Y-3.6273
X5.6339Y-4.1929
X5.6988Y-3.6339
X5.7756Y-3.6339
X5.9055Y-3.6339
X6.0354Y-3.6339
X6.0669Y-3.3045
X6.0669Y-3.4344
X6.0669Y-3.561
X6.1646Y-3.6339
X6.2941Y-3.6339
X6.4173Y-3.6339
X6.5354Y-3.6339
X6.6535Y-3.6339
X6.7831Y-3.6339
X6.9126Y-3.6339
X7.0421Y-3.6339
X7.0768Y-3.4783
X7.5492Y-3.4827
X7.9764Y-4.2258
T2
X4.9783Y-3.4703
X4.9783Y-3.5304
X5.0084Y-3.4403
X5.0084Y-3.5004
X5.0084Y-3.5604
X5.0384Y-3.4703
X5.0384Y-3.5304
X5.0684Y-3.4403
X5.0684Y-3.5004
X5.0684Y-3.5604
X5.0984Y-3.4703
X5.0984Y-3.5304
T3
X3.0669Y-4.2362
X3.0768Y-3.6746
X3.3248Y-3.9374
X3.3248Y-4.0693
X3.3307Y-3.3602
X3.3848Y-4.0033
X3.4154Y-3.3583
X3.4449Y-3.9374
X3.4449Y-4.0693
X3.5433Y-4.252
X3.6142Y-4.3858
X3.7756Y-3.6746
X3.874Y-3.3602
X3.9469Y-3.3622
X4.0965Y-3.75
X4.2047Y-4.1431
X4.2756Y-3.6746
X4.4352Y-3.7913
X7.1457Y-3.6811
X8.0236Y-3.6831
X8.0236Y-4.1417
T4
X3.1102Y-3.0191
X3.1102Y-3.1191
X3.1102Y-3.2191
X3.7961Y-4.2888
X3.7961Y-4.4462
X3.7961Y-4.6037
X4.1961Y-4.2888
X4.1961Y-4.4462
X4.1961Y-4.6037
X4.8213Y-4.7598
X4.8301Y-4.2888
X4.8301Y-4.4462
X4.8301Y-4.6037
X4.9213Y-4.7598
X5.0213Y-4.7598
X5.1213Y-4.7598
X5.2213Y-4.7598
X5.2301Y-4.2888
X5.2301Y-4.4462
X5.2301Y-4.6037
X5.3213Y-4.7598
X5.5331Y-4.0596
X5.5331Y-4.3596
X5.6331Y-4.0596
X5.6331Y-4.3596
X5.7331Y-4.0596
X5.7331Y-4.3596
X5.8331Y-4.0596
X5.8331Y-4.3596
X5.9331Y-4.0596
X5.9331Y-4.3596
X6.0331Y-4.0596
X6.0331Y-4.3596
X6.1331Y-4.0596
X6.1331Y-4.3596
X6.2331Y-4.0596
X6.2331Y-4.3596
X6.3217Y-3.372
X6.3819Y-4.0596
X6.3819Y-4.3596
X6.4217Y-3.372
X6.4819Y-4.0596
X6.4819Y-4.3596
X6.5217Y-3.372
X6.5819Y-4.0596
X6.5819Y-4.3596
X6.6217Y-3.372
X6.6819Y-4.0596
X6.6819Y-4.3596
X6.7819Y-4.0596
X6.7819Y-4.3596
X6.8819Y-4.0596
X6.8819Y-4.3596
X6.9819Y-4.0596
X6.9819Y-4.3596
X7.0819Y-4.0596
X7.0819Y-4.3596
X7.2299Y-4.0596
X7.2299Y-4.3596
X7.3299Y-4.0596
X7.3299Y-4.3596
X7.4299Y-4.0596
X7.4299Y-4.3596
X7.5299Y-4.0596
X7.5299Y-4.3596
X7.6299Y-4.0596
X7.6299Y-4.3596
X7.7299Y-4.0596
X7.7299Y-4.3596
X7.8299Y-4.0596
X7.8299Y-4.3596
X7.9299Y-4.0596
X7.9299Y-4.3596
T5
X3.3661Y-3.1077
X3.4055Y-5.0762
X3.563Y-3.1077
X3.6024Y-5.0762
X3.7598Y-3.1077
X3.7992Y-5.0762
X3.9567Y-3.1077
X3.9961Y-5.0762
X4.3307Y-5.0762
X4.5276Y-5.0762
X4.7244Y-5.0762
X4.9213Y-5.0762
X5.4724Y-5.0762
X5.6693Y-5.0762
X5.8661Y-5.0762
X6.063Y-5.0762
X6.2598Y-5.0762
X6.4567Y-5.0762
X6.6535Y-5.0762
X6.8504Y-5.0762
X7.0472Y-5.0762
X7.2441Y-5.0762
X7.4409Y-5.0762
X7.6378Y-5.0762
M30
