%TF.GenerationSoftware,KiCad,Pcbnew,8.0.4*%
%TF.CreationDate,2025-10-07T20:14:48-03:00*%
%TF.ProjectId,Disp_Aquis_Dados_V2_REV_1,44697370-5f41-4717-9569-735f4461646f,rev?*%
%TF.SameCoordinates,Original*%
%TF.FileFunction,Soldermask,Bot*%
%TF.FilePolarity,Negative*%
%FSLAX46Y46*%
G04 Gerber Fmt 4.6, Leading zero omitted, Abs format (unit mm)*
G04 Created by KiCad (PCBNEW 8.0.4) date 2025-10-07 20:14:48*
%MOMM*%
%LPD*%
G01*
G04 APERTURE LIST*
%ADD10R,2.000000X2.000000*%
%ADD11O,2.000000X2.000000*%
%ADD12C,3.000000*%
%ADD13R,1.600000X2.400000*%
%ADD14O,1.600000X2.400000*%
G04 APERTURE END LIST*
D10*
%TO.C,D6*%
X96420000Y-116934314D03*
D11*
X106580000Y-116934314D03*
%TD*%
D12*
%TO.C,J3*%
X86500000Y-128934314D03*
X91500000Y-128934314D03*
X96500000Y-128934314D03*
X101500000Y-128934314D03*
%TD*%
D10*
%TO.C,J6*%
X122460000Y-120900000D03*
D11*
X125000000Y-120900000D03*
X127540000Y-120900000D03*
X130080000Y-120900000D03*
X132620000Y-120900000D03*
X135160000Y-120900000D03*
%TD*%
D10*
%TO.C,J5*%
X160570000Y-85650000D03*
D11*
X163110000Y-85650000D03*
X165650000Y-85650000D03*
X168190000Y-85650000D03*
%TD*%
D13*
%TO.C,U6*%
X140540000Y-110734314D03*
D14*
X143080000Y-110734314D03*
X145620000Y-110734314D03*
X148160000Y-110734314D03*
X150700000Y-110734314D03*
X153240000Y-110734314D03*
X155780000Y-110734314D03*
X158320000Y-110734314D03*
X158320000Y-103114314D03*
X155780000Y-103114314D03*
X153240000Y-103114314D03*
X150700000Y-103114314D03*
X148160000Y-103114314D03*
X145620000Y-103114314D03*
X143080000Y-103114314D03*
X140540000Y-103114314D03*
%TD*%
D12*
%TO.C,J1*%
X100500000Y-78934314D03*
X95500000Y-78934314D03*
X90500000Y-78934314D03*
X85500000Y-78934314D03*
%TD*%
D13*
%TO.C,U7*%
X162100000Y-110734314D03*
D14*
X164640000Y-110734314D03*
X167180000Y-110734314D03*
X169720000Y-110734314D03*
X172260000Y-110734314D03*
X174800000Y-110734314D03*
X177340000Y-110734314D03*
X179880000Y-110734314D03*
X179880000Y-103114314D03*
X177340000Y-103114314D03*
X174800000Y-103114314D03*
X172260000Y-103114314D03*
X169720000Y-103114314D03*
X167180000Y-103114314D03*
X164640000Y-103114314D03*
X162100000Y-103114314D03*
%TD*%
D10*
%TO.C,D10*%
X122685000Y-112934314D03*
D11*
X132845000Y-112934314D03*
%TD*%
D13*
%TO.C,U8*%
X183640000Y-110734314D03*
D14*
X186180000Y-110734314D03*
X188720000Y-110734314D03*
X191260000Y-110734314D03*
X193800000Y-110734314D03*
X196340000Y-110734314D03*
X198880000Y-110734314D03*
X201420000Y-110734314D03*
X201420000Y-103114314D03*
X198880000Y-103114314D03*
X196340000Y-103114314D03*
X193800000Y-103114314D03*
X191260000Y-103114314D03*
X188720000Y-103114314D03*
X186180000Y-103114314D03*
X183640000Y-103114314D03*
%TD*%
D10*
%TO.C,D7*%
X96420000Y-112934314D03*
D11*
X106580000Y-112934314D03*
%TD*%
D12*
%TO.C,J4*%
X110000000Y-128934314D03*
X115000000Y-128934314D03*
X120000000Y-128934314D03*
X125000000Y-128934314D03*
%TD*%
D10*
%TO.C,D9*%
X122685000Y-116934314D03*
D11*
X132845000Y-116934314D03*
%TD*%
D10*
%TO.C,D8*%
X96420000Y-108934314D03*
D11*
X106580000Y-108934314D03*
%TD*%
D12*
%TO.C,J2*%
X139000000Y-128934314D03*
X144000000Y-128934314D03*
X149000000Y-128934314D03*
X154000000Y-128934314D03*
X159000000Y-128934314D03*
X164000000Y-128934314D03*
X169000000Y-128934314D03*
X174000000Y-128934314D03*
X179000000Y-128934314D03*
X184000000Y-128934314D03*
X189000000Y-128934314D03*
X194000000Y-128934314D03*
%TD*%
D10*
%TO.C,D11*%
X122685000Y-108934314D03*
D11*
X132845000Y-108934314D03*
%TD*%
D10*
%TO.C,J7*%
X79000000Y-81764314D03*
D11*
X79000000Y-79224314D03*
X79000000Y-76684314D03*
%TD*%
M02*
