%TF.GenerationSoftware,KiCad,Pcbnew,8.0.4*%
%TF.CreationDate,2025-10-07T20:14:48-03:00*%
%TF.ProjectId,Disp_Aquis_Dados_V2_REV_1,44697370-5f41-4717-9569-735f4461646f,rev?*%
%TF.SameCoordinates,Original*%
%TF.FileFunction,Paste,Top*%
%TF.FilePolarity,Positive*%
%FSLAX46Y46*%
G04 Gerber Fmt 4.6, Leading zero omitted, Abs format (unit mm)*
G04 Created by KiCad (PCBNEW 8.0.4) date 2025-10-07 20:14:48*
%MOMM*%
%LPD*%
G01*
G04 APERTURE LIST*
G04 Aperture macros list*
%AMRoundRect*
0 Rectangle with rounded corners*
0 $1 Rounding radius*
0 $2 $3 $4 $5 $6 $7 $8 $9 X,Y pos of 4 corners*
0 Add a 4 corners polygon primitive as box body*
4,1,4,$2,$3,$4,$5,$6,$7,$8,$9,$2,$3,0*
0 Add four circle primitives for the rounded corners*
1,1,$1+$1,$2,$3*
1,1,$1+$1,$4,$5*
1,1,$1+$1,$6,$7*
1,1,$1+$1,$8,$9*
0 Add four rect primitives between the rounded corners*
20,1,$1+$1,$2,$3,$4,$5,0*
20,1,$1+$1,$4,$5,$6,$7,0*
20,1,$1+$1,$6,$7,$8,$9,0*
20,1,$1+$1,$8,$9,$2,$3,0*%
%AMFreePoly0*
4,1,5,1.250000,-0.450000,-1.250000,-0.450000,-1.250000,0.450000,1.250000,0.450000,1.250000,-0.450000,1.250000,-0.450000,$1*%
G04 Aperture macros list end*
%ADD10RoundRect,0.250000X-0.625000X0.400000X-0.625000X-0.400000X0.625000X-0.400000X0.625000X0.400000X0*%
%ADD11RoundRect,0.250000X0.550000X-1.250000X0.550000X1.250000X-0.550000X1.250000X-0.550000X-1.250000X0*%
%ADD12RoundRect,0.250001X0.462499X0.624999X-0.462499X0.624999X-0.462499X-0.624999X0.462499X-0.624999X0*%
%ADD13RoundRect,0.250000X0.625000X-0.400000X0.625000X0.400000X-0.625000X0.400000X-0.625000X-0.400000X0*%
%ADD14R,1.300000X1.550000*%
%ADD15RoundRect,0.250000X0.475000X-0.337500X0.475000X0.337500X-0.475000X0.337500X-0.475000X-0.337500X0*%
%ADD16RoundRect,0.250000X-0.400000X-0.625000X0.400000X-0.625000X0.400000X0.625000X-0.400000X0.625000X0*%
%ADD17RoundRect,0.250000X0.400000X0.625000X-0.400000X0.625000X-0.400000X-0.625000X0.400000X-0.625000X0*%
%ADD18RoundRect,0.249999X1.425001X-0.450001X1.425001X0.450001X-1.425001X0.450001X-1.425001X-0.450001X0*%
%ADD19RoundRect,0.150000X0.150000X-0.825000X0.150000X0.825000X-0.150000X0.825000X-0.150000X-0.825000X0*%
%ADD20RoundRect,0.250001X0.624999X-0.462499X0.624999X0.462499X-0.624999X0.462499X-0.624999X-0.462499X0*%
%ADD21RoundRect,0.375000X-0.375000X0.625000X-0.375000X-0.625000X0.375000X-0.625000X0.375000X0.625000X0*%
%ADD22RoundRect,0.500000X-1.400000X0.500000X-1.400000X-0.500000X1.400000X-0.500000X1.400000X0.500000X0*%
%ADD23RoundRect,0.250000X-0.475000X0.337500X-0.475000X-0.337500X0.475000X-0.337500X0.475000X0.337500X0*%
%ADD24RoundRect,0.250000X0.337500X0.475000X-0.337500X0.475000X-0.337500X-0.475000X0.337500X-0.475000X0*%
%ADD25FreePoly0,0.000000*%
%ADD26R,0.900000X2.500000*%
%ADD27R,2.500000X0.900000*%
%ADD28R,1.050000X1.050000*%
%ADD29RoundRect,0.250000X-0.350000X0.850000X-0.350000X-0.850000X0.350000X-0.850000X0.350000X0.850000X0*%
%ADD30RoundRect,0.250000X-1.125000X1.275000X-1.125000X-1.275000X1.125000X-1.275000X1.125000X1.275000X0*%
G04 APERTURE END LIST*
D10*
%TO.C,R17*%
X118040000Y-118384314D03*
X118040000Y-121484314D03*
%TD*%
D11*
%TO.C,C3*%
X82000000Y-91134314D03*
X82000000Y-86734314D03*
%TD*%
D12*
%TO.C,D2*%
X151462500Y-83934314D03*
X148487500Y-83934314D03*
%TD*%
D13*
%TO.C,R47*%
X169000000Y-97134314D03*
X169000000Y-94034314D03*
%TD*%
D14*
%TO.C,RESET*%
X189250000Y-88459314D03*
X189250000Y-96409314D03*
X184750000Y-88459314D03*
X184750000Y-96409314D03*
%TD*%
D15*
%TO.C,C7*%
X105500000Y-84171814D03*
X105500000Y-82096814D03*
%TD*%
D16*
%TO.C,R20*%
X89950000Y-112934314D03*
X93050000Y-112934314D03*
%TD*%
D13*
%TO.C,R39*%
X156580000Y-97134314D03*
X156580000Y-94034314D03*
%TD*%
D16*
%TO.C,R11*%
X89950000Y-118934314D03*
X93050000Y-118934314D03*
%TD*%
D17*
%TO.C,R19*%
X82050000Y-118800000D03*
X78950000Y-118800000D03*
%TD*%
D13*
%TO.C,R10*%
X81900000Y-124350000D03*
X81900000Y-121250000D03*
%TD*%
D10*
%TO.C,R22*%
X87500000Y-118334314D03*
X87500000Y-121434314D03*
%TD*%
%TO.C,R21*%
X79000000Y-121250000D03*
X79000000Y-124350000D03*
%TD*%
%TO.C,R15*%
X112215000Y-118384314D03*
X112215000Y-121484314D03*
%TD*%
D18*
%TO.C,R38*%
X177340000Y-120484314D03*
X177340000Y-114384314D03*
%TD*%
D13*
%TO.C,R42*%
X166000000Y-97134314D03*
X166000000Y-94034314D03*
%TD*%
%TO.C,R31*%
X143420000Y-97134314D03*
X143420000Y-94034314D03*
%TD*%
D18*
%TO.C,R29*%
X150700000Y-120484314D03*
X150700000Y-114384314D03*
%TD*%
D16*
%TO.C,R6*%
X142937500Y-87234314D03*
X146037500Y-87234314D03*
%TD*%
D18*
%TO.C,R35*%
X162100000Y-120484314D03*
X162100000Y-114384314D03*
%TD*%
D13*
%TO.C,R40*%
X159870000Y-97134314D03*
X159870000Y-94034314D03*
%TD*%
%TO.C,R34*%
X153290000Y-97134314D03*
X153290000Y-94034314D03*
%TD*%
D17*
%TO.C,R9*%
X81550000Y-132500000D03*
X78450000Y-132500000D03*
%TD*%
D18*
%TO.C,R28*%
X145620000Y-120484314D03*
X145620000Y-114384314D03*
%TD*%
%TO.C,R44*%
X188720000Y-120484314D03*
X188720000Y-114384314D03*
%TD*%
D10*
%TO.C,R1*%
X114200000Y-88384314D03*
X114200000Y-91484314D03*
%TD*%
D18*
%TO.C,R46*%
X198880000Y-120484314D03*
X198880000Y-114384314D03*
%TD*%
D13*
%TO.C,R48*%
X172290000Y-97134314D03*
X172290000Y-94034314D03*
%TD*%
%TO.C,R25*%
X115152500Y-107484314D03*
X115152500Y-104384314D03*
%TD*%
%TO.C,R26*%
X118040000Y-107484314D03*
X118040000Y-104384314D03*
%TD*%
D18*
%TO.C,R27*%
X140540000Y-120484314D03*
X140540000Y-114384314D03*
%TD*%
D19*
%TO.C,U4*%
X79190000Y-115409314D03*
X80460000Y-115409314D03*
X81730000Y-115409314D03*
X83000000Y-115409314D03*
X84270000Y-115409314D03*
X85540000Y-115409314D03*
X86810000Y-115409314D03*
X86810000Y-110459314D03*
X85540000Y-110459314D03*
X84270000Y-110459314D03*
X83000000Y-110459314D03*
X81730000Y-110459314D03*
X80460000Y-110459314D03*
X79190000Y-110459314D03*
%TD*%
D14*
%TO.C,BOOT*%
X194250000Y-96409314D03*
X194250000Y-88459314D03*
X198750000Y-96409314D03*
X198750000Y-88459314D03*
%TD*%
D12*
%TO.C,D5*%
X151475000Y-90434314D03*
X148500000Y-90434314D03*
%TD*%
D16*
%TO.C,R18*%
X78450000Y-126900000D03*
X81550000Y-126900000D03*
%TD*%
D13*
%TO.C,R7*%
X202000000Y-91484314D03*
X202000000Y-88384314D03*
%TD*%
D11*
%TO.C,C8*%
X102833334Y-91134314D03*
X102833334Y-86734314D03*
%TD*%
D20*
%TO.C,D1*%
X114200000Y-97409314D03*
X114200000Y-94434314D03*
%TD*%
D13*
%TO.C,R41*%
X163000000Y-97134314D03*
X163000000Y-94034314D03*
%TD*%
D21*
%TO.C,U3*%
X102100000Y-95266814D03*
X99800000Y-95266814D03*
X97500000Y-95266814D03*
D22*
X99800000Y-101566814D03*
%TD*%
D23*
%TO.C,C5*%
X94000000Y-94859314D03*
X94000000Y-96934314D03*
%TD*%
D11*
%TO.C,C2*%
X89000000Y-91134314D03*
X89000000Y-86734314D03*
%TD*%
D10*
%TO.C,R4*%
X111110000Y-88384314D03*
X111110000Y-91484314D03*
%TD*%
D13*
%TO.C,R3*%
X108610000Y-91484314D03*
X108610000Y-88384314D03*
%TD*%
D24*
%TO.C,C9*%
X114537500Y-84434314D03*
X112462500Y-84434314D03*
%TD*%
D18*
%TO.C,R45*%
X193800000Y-120484314D03*
X193800000Y-114384314D03*
%TD*%
D25*
%TO.C,U2*%
X119405000Y-81569314D03*
X119405000Y-82839314D03*
X119405000Y-84109314D03*
X119405000Y-85379314D03*
X119405000Y-86649314D03*
X119405000Y-87919314D03*
X119405000Y-89189314D03*
X119405000Y-90459314D03*
X119405000Y-91729314D03*
X119405000Y-92999314D03*
X119405000Y-94269314D03*
X119405000Y-95539314D03*
X119405000Y-96809314D03*
X119405000Y-98079314D03*
D26*
X122945000Y-99829314D03*
X124215000Y-99829314D03*
X125485000Y-99829314D03*
X126755000Y-99829314D03*
X128025000Y-99829314D03*
X129295000Y-99829314D03*
X130565000Y-99829314D03*
X131835000Y-99829314D03*
X133105000Y-99829314D03*
X134375000Y-99829314D03*
D27*
X137905000Y-98079314D03*
X137905000Y-96809314D03*
X137905000Y-95539314D03*
X137905000Y-94269314D03*
X137905000Y-92999314D03*
X137905000Y-91729314D03*
X137905000Y-90459314D03*
X137905000Y-89189314D03*
X137905000Y-87919314D03*
X137905000Y-86649314D03*
X137905000Y-85379314D03*
X137905000Y-84109314D03*
X137905000Y-82839314D03*
X137905000Y-81569314D03*
D28*
X126450000Y-87384314D03*
X126450000Y-88909314D03*
X126450000Y-90434314D03*
X127975000Y-87384314D03*
X127975000Y-88909314D03*
X127975000Y-90434314D03*
X129500000Y-87384314D03*
X129500000Y-88909314D03*
X129500000Y-90434314D03*
%TD*%
D13*
%TO.C,R5*%
X181500000Y-91484314D03*
X181500000Y-88384314D03*
%TD*%
D12*
%TO.C,D4*%
X151475000Y-87234314D03*
X148500000Y-87234314D03*
%TD*%
D13*
%TO.C,R13*%
X84700000Y-121434314D03*
X84700000Y-118334314D03*
%TD*%
D20*
%TO.C,D3*%
X111110000Y-97409314D03*
X111110000Y-94434314D03*
%TD*%
D13*
%TO.C,R32*%
X146710000Y-97134314D03*
X146710000Y-94034314D03*
%TD*%
D23*
%TO.C,C1*%
X91500000Y-94859314D03*
X91500000Y-96934314D03*
%TD*%
D24*
%TO.C,C10*%
X114537500Y-81934314D03*
X112462500Y-81934314D03*
%TD*%
D13*
%TO.C,R33*%
X150000000Y-97134314D03*
X150000000Y-94034314D03*
%TD*%
D11*
%TO.C,C6*%
X96000000Y-91134314D03*
X96000000Y-86734314D03*
%TD*%
D13*
%TO.C,R50*%
X178870000Y-97134314D03*
X178870000Y-94034314D03*
%TD*%
D16*
%TO.C,R8*%
X142937500Y-90434314D03*
X146037500Y-90434314D03*
%TD*%
D18*
%TO.C,R30*%
X155780000Y-120484314D03*
X155780000Y-114384314D03*
%TD*%
D17*
%TO.C,R12*%
X81550000Y-129700000D03*
X78450000Y-129700000D03*
%TD*%
D18*
%TO.C,R36*%
X167180000Y-120484314D03*
X167180000Y-114384314D03*
%TD*%
D13*
%TO.C,R49*%
X175580000Y-97134314D03*
X175580000Y-94034314D03*
%TD*%
D18*
%TO.C,R43*%
X183610000Y-120484314D03*
X183610000Y-114384314D03*
%TD*%
D13*
%TO.C,R24*%
X112215000Y-107484314D03*
X112215000Y-104384314D03*
%TD*%
D16*
%TO.C,R23*%
X89950000Y-109934314D03*
X93050000Y-109934314D03*
%TD*%
%TO.C,R2*%
X142925000Y-83934314D03*
X146025000Y-83934314D03*
%TD*%
D17*
%TO.C,R14*%
X93050000Y-115934314D03*
X89950000Y-115934314D03*
%TD*%
D23*
%TO.C,C4*%
X80000000Y-94859314D03*
X80000000Y-96934314D03*
%TD*%
D10*
%TO.C,R16*%
X115152500Y-118384314D03*
X115152500Y-121484314D03*
%TD*%
D29*
%TO.C,U1*%
X88255000Y-95384314D03*
X85975000Y-95384314D03*
D30*
X87500000Y-100009314D03*
X84450000Y-100009314D03*
X87500000Y-103359314D03*
X84450000Y-103359314D03*
D29*
X83695000Y-95384314D03*
%TD*%
D19*
%TO.C,U5*%
X111690000Y-115409314D03*
X112960000Y-115409314D03*
X114230000Y-115409314D03*
X115500000Y-115409314D03*
X116770000Y-115409314D03*
X118040000Y-115409314D03*
X119310000Y-115409314D03*
X119310000Y-110459314D03*
X118040000Y-110459314D03*
X116770000Y-110459314D03*
X115500000Y-110459314D03*
X114230000Y-110459314D03*
X112960000Y-110459314D03*
X111690000Y-110459314D03*
%TD*%
D18*
%TO.C,R37*%
X172260000Y-120484314D03*
X172260000Y-114384314D03*
%TD*%
M02*
