%TF.GenerationSoftware,KiCad,Pcbnew,8.0.4*%
%TF.CreationDate,2025-10-07T20:14:47-03:00*%
%TF.ProjectId,Disp_Aquis_Dados_V2_REV_1,44697370-5f41-4717-9569-735f4461646f,rev?*%
%TF.SameCoordinates,Original*%
%TF.FileFunction,Copper,L1,Top*%
%TF.FilePolarity,Positive*%
%FSLAX46Y46*%
G04 Gerber Fmt 4.6, Leading zero omitted, Abs format (unit mm)*
G04 Created by KiCad (PCBNEW 8.0.4) date 2025-10-07 20:14:47*
%MOMM*%
%LPD*%
G01*
G04 APERTURE LIST*
G04 Aperture macros list*
%AMRoundRect*
0 Rectangle with rounded corners*
0 $1 Rounding radius*
0 $2 $3 $4 $5 $6 $7 $8 $9 X,Y pos of 4 corners*
0 Add a 4 corners polygon primitive as box body*
4,1,4,$2,$3,$4,$5,$6,$7,$8,$9,$2,$3,0*
0 Add four circle primitives for the rounded corners*
1,1,$1+$1,$2,$3*
1,1,$1+$1,$4,$5*
1,1,$1+$1,$6,$7*
1,1,$1+$1,$8,$9*
0 Add four rect primitives between the rounded corners*
20,1,$1+$1,$2,$3,$4,$5,0*
20,1,$1+$1,$4,$5,$6,$7,0*
20,1,$1+$1,$6,$7,$8,$9,0*
20,1,$1+$1,$8,$9,$2,$3,0*%
%AMFreePoly0*
4,1,5,1.250000,-0.450000,-1.250000,-0.450000,-1.250000,0.450000,1.250000,0.450000,1.250000,-0.450000,1.250000,-0.450000,$1*%
G04 Aperture macros list end*
%TA.AperFunction,SMDPad,CuDef*%
%ADD10RoundRect,0.250000X-0.625000X0.400000X-0.625000X-0.400000X0.625000X-0.400000X0.625000X0.400000X0*%
%TD*%
%TA.AperFunction,SMDPad,CuDef*%
%ADD11RoundRect,0.250000X0.550000X-1.250000X0.550000X1.250000X-0.550000X1.250000X-0.550000X-1.250000X0*%
%TD*%
%TA.AperFunction,SMDPad,CuDef*%
%ADD12RoundRect,0.250001X0.462499X0.624999X-0.462499X0.624999X-0.462499X-0.624999X0.462499X-0.624999X0*%
%TD*%
%TA.AperFunction,SMDPad,CuDef*%
%ADD13RoundRect,0.250000X0.625000X-0.400000X0.625000X0.400000X-0.625000X0.400000X-0.625000X-0.400000X0*%
%TD*%
%TA.AperFunction,SMDPad,CuDef*%
%ADD14R,1.300000X1.550000*%
%TD*%
%TA.AperFunction,SMDPad,CuDef*%
%ADD15RoundRect,0.250000X0.475000X-0.337500X0.475000X0.337500X-0.475000X0.337500X-0.475000X-0.337500X0*%
%TD*%
%TA.AperFunction,SMDPad,CuDef*%
%ADD16RoundRect,0.250000X-0.400000X-0.625000X0.400000X-0.625000X0.400000X0.625000X-0.400000X0.625000X0*%
%TD*%
%TA.AperFunction,ComponentPad*%
%ADD17R,2.000000X2.000000*%
%TD*%
%TA.AperFunction,ComponentPad*%
%ADD18O,2.000000X2.000000*%
%TD*%
%TA.AperFunction,SMDPad,CuDef*%
%ADD19RoundRect,0.250000X0.400000X0.625000X-0.400000X0.625000X-0.400000X-0.625000X0.400000X-0.625000X0*%
%TD*%
%TA.AperFunction,ComponentPad*%
%ADD20C,3.000000*%
%TD*%
%TA.AperFunction,SMDPad,CuDef*%
%ADD21RoundRect,0.249999X1.425001X-0.450001X1.425001X0.450001X-1.425001X0.450001X-1.425001X-0.450001X0*%
%TD*%
%TA.AperFunction,ComponentPad*%
%ADD22R,1.600000X2.400000*%
%TD*%
%TA.AperFunction,ComponentPad*%
%ADD23O,1.600000X2.400000*%
%TD*%
%TA.AperFunction,SMDPad,CuDef*%
%ADD24RoundRect,0.150000X0.150000X-0.825000X0.150000X0.825000X-0.150000X0.825000X-0.150000X-0.825000X0*%
%TD*%
%TA.AperFunction,SMDPad,CuDef*%
%ADD25RoundRect,0.250001X0.624999X-0.462499X0.624999X0.462499X-0.624999X0.462499X-0.624999X-0.462499X0*%
%TD*%
%TA.AperFunction,SMDPad,CuDef*%
%ADD26RoundRect,0.375000X-0.375000X0.625000X-0.375000X-0.625000X0.375000X-0.625000X0.375000X0.625000X0*%
%TD*%
%TA.AperFunction,SMDPad,CuDef*%
%ADD27RoundRect,0.500000X-1.400000X0.500000X-1.400000X-0.500000X1.400000X-0.500000X1.400000X0.500000X0*%
%TD*%
%TA.AperFunction,SMDPad,CuDef*%
%ADD28RoundRect,0.250000X-0.475000X0.337500X-0.475000X-0.337500X0.475000X-0.337500X0.475000X0.337500X0*%
%TD*%
%TA.AperFunction,SMDPad,CuDef*%
%ADD29RoundRect,0.250000X0.337500X0.475000X-0.337500X0.475000X-0.337500X-0.475000X0.337500X-0.475000X0*%
%TD*%
%TA.AperFunction,SMDPad,CuDef*%
%ADD30FreePoly0,0.000000*%
%TD*%
%TA.AperFunction,SMDPad,CuDef*%
%ADD31R,0.900000X2.500000*%
%TD*%
%TA.AperFunction,SMDPad,CuDef*%
%ADD32R,2.500000X0.900000*%
%TD*%
%TA.AperFunction,SMDPad,CuDef*%
%ADD33R,1.050000X1.050000*%
%TD*%
%TA.AperFunction,HeatsinkPad*%
%ADD34C,0.800000*%
%TD*%
%TA.AperFunction,SMDPad,CuDef*%
%ADD35R,4.200000X4.200000*%
%TD*%
%TA.AperFunction,SMDPad,CuDef*%
%ADD36RoundRect,0.250000X-0.350000X0.850000X-0.350000X-0.850000X0.350000X-0.850000X0.350000X0.850000X0*%
%TD*%
%TA.AperFunction,SMDPad,CuDef*%
%ADD37RoundRect,0.250000X-1.125000X1.275000X-1.125000X-1.275000X1.125000X-1.275000X1.125000X1.275000X0*%
%TD*%
%TA.AperFunction,SMDPad,CuDef*%
%ADD38RoundRect,0.249997X-2.650003X2.950003X-2.650003X-2.950003X2.650003X-2.950003X2.650003X2.950003X0*%
%TD*%
%TA.AperFunction,ViaPad*%
%ADD39C,0.800000*%
%TD*%
%TA.AperFunction,ViaPad*%
%ADD40C,1.000000*%
%TD*%
%TA.AperFunction,Conductor*%
%ADD41C,0.400000*%
%TD*%
%TA.AperFunction,Conductor*%
%ADD42C,0.600000*%
%TD*%
G04 APERTURE END LIST*
D10*
%TO.P,R17,1*%
%TO.N,Input_4-20mA_2*%
X118040000Y-118384314D03*
%TO.P,R17,2*%
%TO.N,GND*%
X118040000Y-121484314D03*
%TD*%
D11*
%TO.P,C3,1*%
%TO.N,/5V_REG*%
X82000000Y-91134314D03*
%TO.P,C3,2*%
%TO.N,GND*%
X82000000Y-86734314D03*
%TD*%
D12*
%TO.P,D2,1,K*%
%TO.N,GND*%
X151462500Y-83934314D03*
%TO.P,D2,2,A*%
%TO.N,Net-(D2-A)*%
X148487500Y-83934314D03*
%TD*%
D13*
%TO.P,R47,1*%
%TO.N,GPIO_8*%
X169000000Y-97134314D03*
%TO.P,R47,2*%
%TO.N,GND*%
X169000000Y-94034314D03*
%TD*%
D14*
%TO.P,RESET,1,1*%
%TO.N,GND*%
X189250000Y-88459314D03*
X189250000Y-96409314D03*
%TO.P,RESET,2,2*%
%TO.N,RESET_PIN*%
X184750000Y-88459314D03*
X184750000Y-96409314D03*
%TD*%
D15*
%TO.P,C7,1*%
%TO.N,+3.3V*%
X105500000Y-84171814D03*
%TO.P,C7,2*%
%TO.N,GND*%
X105500000Y-82096814D03*
%TD*%
D16*
%TO.P,R20,1*%
%TO.N,Net-(U4C-+)*%
X89950000Y-112934314D03*
%TO.P,R20,2*%
%TO.N,GND*%
X93050000Y-112934314D03*
%TD*%
D17*
%TO.P,D6,1,K*%
%TO.N,0-10V_0*%
X96420000Y-116934314D03*
D18*
%TO.P,D6,2,A*%
%TO.N,GND*%
X106580000Y-116934314D03*
%TD*%
D13*
%TO.P,R39,1*%
%TO.N,GPIO_4*%
X156580000Y-97134314D03*
%TO.P,R39,2*%
%TO.N,GND*%
X156580000Y-94034314D03*
%TD*%
D16*
%TO.P,R11,1*%
%TO.N,Input_0-10V_2*%
X89950000Y-118934314D03*
%TO.P,R11,2*%
%TO.N,Net-(R11-Pad2)*%
X93050000Y-118934314D03*
%TD*%
D19*
%TO.P,R19,1*%
%TO.N,Net-(U4B-+)*%
X82050000Y-118800000D03*
%TO.P,R19,2*%
%TO.N,GND*%
X78950000Y-118800000D03*
%TD*%
D13*
%TO.P,R10,1*%
%TO.N,Input_0-10V_1*%
X81900000Y-124350000D03*
%TO.P,R10,2*%
%TO.N,Net-(R10-Pad2)*%
X81900000Y-121250000D03*
%TD*%
D10*
%TO.P,R22,1*%
%TO.N,0-10V_1*%
X87500000Y-118334314D03*
%TO.P,R22,2*%
%TO.N,GND*%
X87500000Y-121434314D03*
%TD*%
%TO.P,R21,1*%
%TO.N,0-10V_0*%
X79000000Y-121250000D03*
%TO.P,R21,2*%
%TO.N,GND*%
X79000000Y-124350000D03*
%TD*%
D20*
%TO.P,J3,1,Pin_1*%
%TO.N,Input_0-10V_0*%
X86500000Y-128934314D03*
%TO.P,J3,2,Pin_2*%
%TO.N,Input_0-10V_1*%
X91500000Y-128934314D03*
%TO.P,J3,3,Pin_3*%
%TO.N,Input_0-10V_2*%
X96500000Y-128934314D03*
%TO.P,J3,4,Pin_4*%
%TO.N,GND*%
X101500000Y-128934314D03*
%TD*%
D10*
%TO.P,R15,1*%
%TO.N,Input_4-20mA_0*%
X112215000Y-118384314D03*
%TO.P,R15,2*%
%TO.N,GND*%
X112215000Y-121484314D03*
%TD*%
D21*
%TO.P,R38,1*%
%TO.N,IN_D7*%
X177340000Y-120484314D03*
%TO.P,R38,2*%
%TO.N,Net-(R38-Pad2)*%
X177340000Y-114384314D03*
%TD*%
D13*
%TO.P,R42,1*%
%TO.N,GPIO_7*%
X166000000Y-97134314D03*
%TO.P,R42,2*%
%TO.N,GND*%
X166000000Y-94034314D03*
%TD*%
D17*
%TO.P,J6,1,Pin_1*%
%TO.N,SPI_HD*%
X122460000Y-120900000D03*
D18*
%TO.P,J6,2,Pin_2*%
%TO.N,SPI_WP*%
X125000000Y-120900000D03*
%TO.P,J6,3,Pin_3*%
%TO.N,SPI_CS*%
X127540000Y-120900000D03*
%TO.P,J6,4,Pin_4*%
%TO.N,SPI_CLK*%
X130080000Y-120900000D03*
%TO.P,J6,5,Pin_5*%
%TO.N,SPI_MISO*%
X132620000Y-120900000D03*
%TO.P,J6,6,Pin_6*%
%TO.N,SPI_MOSI*%
X135160000Y-120900000D03*
%TD*%
D13*
%TO.P,R31,1*%
%TO.N,GPIO_0*%
X143420000Y-97134314D03*
%TO.P,R31,2*%
%TO.N,GND*%
X143420000Y-94034314D03*
%TD*%
D17*
%TO.P,J5,1,Pin_1*%
%TO.N,unconnected-(J5-Pin_1-Pad1)*%
X160570000Y-85650000D03*
D18*
%TO.P,J5,2,Pin_2*%
%TO.N,RX_PIN*%
X163110000Y-85650000D03*
%TO.P,J5,3,Pin_3*%
%TO.N,TX_PIN*%
X165650000Y-85650000D03*
%TO.P,J5,4,Pin_4*%
%TO.N,GND*%
X168190000Y-85650000D03*
%TD*%
D21*
%TO.P,R29,1*%
%TO.N,IN_D2*%
X150700000Y-120484314D03*
%TO.P,R29,2*%
%TO.N,Net-(R29-Pad2)*%
X150700000Y-114384314D03*
%TD*%
D16*
%TO.P,R6,1*%
%TO.N,PCB_LED_1*%
X142937500Y-87234314D03*
%TO.P,R6,2*%
%TO.N,Net-(D4-A)*%
X146037500Y-87234314D03*
%TD*%
D22*
%TO.P,U6,1*%
%TO.N,Net-(R27-Pad2)*%
X140540000Y-110734314D03*
D23*
%TO.P,U6,2*%
%TO.N,GND*%
X143080000Y-110734314D03*
%TO.P,U6,3*%
%TO.N,Net-(R28-Pad2)*%
X145620000Y-110734314D03*
%TO.P,U6,4*%
%TO.N,GND*%
X148160000Y-110734314D03*
%TO.P,U6,5*%
%TO.N,Net-(R29-Pad2)*%
X150700000Y-110734314D03*
%TO.P,U6,6*%
%TO.N,GND*%
X153240000Y-110734314D03*
%TO.P,U6,7*%
%TO.N,Net-(R30-Pad2)*%
X155780000Y-110734314D03*
%TO.P,U6,8*%
%TO.N,GND*%
X158320000Y-110734314D03*
%TO.P,U6,9*%
%TO.N,GPIO_3*%
X158320000Y-103114314D03*
%TO.P,U6,10*%
%TO.N,+3.3V*%
X155780000Y-103114314D03*
%TO.P,U6,11*%
%TO.N,GPIO_2*%
X153240000Y-103114314D03*
%TO.P,U6,12*%
%TO.N,+3.3V*%
X150700000Y-103114314D03*
%TO.P,U6,13*%
%TO.N,GPIO_1*%
X148160000Y-103114314D03*
%TO.P,U6,14*%
%TO.N,+3.3V*%
X145620000Y-103114314D03*
%TO.P,U6,15*%
%TO.N,GPIO_0*%
X143080000Y-103114314D03*
%TO.P,U6,16*%
%TO.N,+3.3V*%
X140540000Y-103114314D03*
%TD*%
D21*
%TO.P,R35,1*%
%TO.N,IN_D4*%
X162100000Y-120484314D03*
%TO.P,R35,2*%
%TO.N,Net-(R35-Pad2)*%
X162100000Y-114384314D03*
%TD*%
D13*
%TO.P,R40,1*%
%TO.N,GPIO_5*%
X159870000Y-97134314D03*
%TO.P,R40,2*%
%TO.N,GND*%
X159870000Y-94034314D03*
%TD*%
%TO.P,R34,1*%
%TO.N,GPIO_3*%
X153290000Y-97134314D03*
%TO.P,R34,2*%
%TO.N,GND*%
X153290000Y-94034314D03*
%TD*%
D19*
%TO.P,R9,1*%
%TO.N,Input_0-10V_0*%
X81550000Y-132500000D03*
%TO.P,R9,2*%
%TO.N,Net-(R12-Pad1)*%
X78450000Y-132500000D03*
%TD*%
D21*
%TO.P,R28,1*%
%TO.N,IN_D1*%
X145620000Y-120484314D03*
%TO.P,R28,2*%
%TO.N,Net-(R28-Pad2)*%
X145620000Y-114384314D03*
%TD*%
%TO.P,R44,1*%
%TO.N,IN_D9*%
X188720000Y-120484314D03*
%TO.P,R44,2*%
%TO.N,Net-(R44-Pad2)*%
X188720000Y-114384314D03*
%TD*%
D10*
%TO.P,R1,1*%
%TO.N,+3.3V*%
X114200000Y-88384314D03*
%TO.P,R1,2*%
%TO.N,Net-(D1-A)*%
X114200000Y-91484314D03*
%TD*%
D21*
%TO.P,R46,1*%
%TO.N,IN_D11*%
X198880000Y-120484314D03*
%TO.P,R46,2*%
%TO.N,Net-(R46-Pad2)*%
X198880000Y-114384314D03*
%TD*%
D13*
%TO.P,R48,1*%
%TO.N,GPIO_9*%
X172290000Y-97134314D03*
%TO.P,R48,2*%
%TO.N,GND*%
X172290000Y-94034314D03*
%TD*%
%TO.P,R25,1*%
%TO.N,4-20mA_1*%
X115152500Y-107484314D03*
%TO.P,R25,2*%
%TO.N,GND*%
X115152500Y-104384314D03*
%TD*%
%TO.P,R26,1*%
%TO.N,4-20mA_2*%
X118040000Y-107484314D03*
%TO.P,R26,2*%
%TO.N,GND*%
X118040000Y-104384314D03*
%TD*%
D21*
%TO.P,R27,1*%
%TO.N,IN_D0*%
X140540000Y-120484314D03*
%TO.P,R27,2*%
%TO.N,Net-(R27-Pad2)*%
X140540000Y-114384314D03*
%TD*%
D20*
%TO.P,J1,1,Pin_1*%
%TO.N,12-24V*%
X100500000Y-78934314D03*
%TO.P,J1,2,Pin_2*%
%TO.N,5V_IN*%
X95500000Y-78934314D03*
%TO.P,J1,3,Pin_3*%
%TO.N,GND*%
X90500000Y-78934314D03*
%TO.P,J1,4,Pin_4*%
%TO.N,Earth*%
X85500000Y-78934314D03*
%TD*%
D24*
%TO.P,U4,1*%
%TO.N,0-10V_0*%
X79190000Y-115409314D03*
%TO.P,U4,2,-*%
X80460000Y-115409314D03*
%TO.P,U4,3,+*%
%TO.N,Net-(U4A-+)*%
X81730000Y-115409314D03*
%TO.P,U4,4,V+*%
%TO.N,+5V*%
X83000000Y-115409314D03*
%TO.P,U4,5,+*%
%TO.N,Net-(U4B-+)*%
X84270000Y-115409314D03*
%TO.P,U4,6,-*%
%TO.N,0-10V_1*%
X85540000Y-115409314D03*
%TO.P,U4,7*%
X86810000Y-115409314D03*
%TO.P,U4,8*%
%TO.N,0-10V_2*%
X86810000Y-110459314D03*
%TO.P,U4,9,-*%
X85540000Y-110459314D03*
%TO.P,U4,10,+*%
%TO.N,Net-(U4C-+)*%
X84270000Y-110459314D03*
%TO.P,U4,11,V-*%
%TO.N,GND*%
X83000000Y-110459314D03*
%TO.P,U4,12,+*%
%TO.N,unconnected-(U4D-+-Pad12)*%
X81730000Y-110459314D03*
%TO.P,U4,13,-*%
%TO.N,unconnected-(U4D---Pad13)*%
X80460000Y-110459314D03*
%TO.P,U4,14*%
%TO.N,unconnected-(U4-Pad14)*%
X79190000Y-110459314D03*
%TD*%
D14*
%TO.P,BOOT,1,1*%
%TO.N,GND*%
X194250000Y-96409314D03*
X194250000Y-88459314D03*
%TO.P,BOOT,2,2*%
%TO.N,BOOT_MODE*%
X198750000Y-96409314D03*
X198750000Y-88459314D03*
%TD*%
D22*
%TO.P,U7,1*%
%TO.N,Net-(R35-Pad2)*%
X162100000Y-110734314D03*
D23*
%TO.P,U7,2*%
%TO.N,GND*%
X164640000Y-110734314D03*
%TO.P,U7,3*%
%TO.N,Net-(R36-Pad2)*%
X167180000Y-110734314D03*
%TO.P,U7,4*%
%TO.N,GND*%
X169720000Y-110734314D03*
%TO.P,U7,5*%
%TO.N,Net-(R37-Pad2)*%
X172260000Y-110734314D03*
%TO.P,U7,6*%
%TO.N,GND*%
X174800000Y-110734314D03*
%TO.P,U7,7*%
%TO.N,Net-(R38-Pad2)*%
X177340000Y-110734314D03*
%TO.P,U7,8*%
%TO.N,GND*%
X179880000Y-110734314D03*
%TO.P,U7,9*%
%TO.N,GPIO_7*%
X179880000Y-103114314D03*
%TO.P,U7,10*%
%TO.N,+3.3V*%
X177340000Y-103114314D03*
%TO.P,U7,11*%
%TO.N,GPIO_6*%
X174800000Y-103114314D03*
%TO.P,U7,12*%
%TO.N,+3.3V*%
X172260000Y-103114314D03*
%TO.P,U7,13*%
%TO.N,GPIO_5*%
X169720000Y-103114314D03*
%TO.P,U7,14*%
%TO.N,+3.3V*%
X167180000Y-103114314D03*
%TO.P,U7,15*%
%TO.N,GPIO_4*%
X164640000Y-103114314D03*
%TO.P,U7,16*%
%TO.N,+3.3V*%
X162100000Y-103114314D03*
%TD*%
D12*
%TO.P,D5,1,K*%
%TO.N,GND*%
X151475000Y-90434314D03*
%TO.P,D5,2,A*%
%TO.N,Net-(D5-A)*%
X148500000Y-90434314D03*
%TD*%
D16*
%TO.P,R18,1*%
%TO.N,Net-(U4A-+)*%
X78450000Y-126900000D03*
%TO.P,R18,2*%
%TO.N,GND*%
X81550000Y-126900000D03*
%TD*%
D13*
%TO.P,R7,1*%
%TO.N,+3.3V*%
X202000000Y-91484314D03*
%TO.P,R7,2*%
%TO.N,BOOT_MODE*%
X202000000Y-88384314D03*
%TD*%
D11*
%TO.P,C8,1*%
%TO.N,+3.3V*%
X102833334Y-91134314D03*
%TO.P,C8,2*%
%TO.N,GND*%
X102833334Y-86734314D03*
%TD*%
D25*
%TO.P,D1,1,K*%
%TO.N,GND*%
X114200000Y-97409314D03*
%TO.P,D1,2,A*%
%TO.N,Net-(D1-A)*%
X114200000Y-94434314D03*
%TD*%
D13*
%TO.P,R41,1*%
%TO.N,GPIO_6*%
X163000000Y-97134314D03*
%TO.P,R41,2*%
%TO.N,GND*%
X163000000Y-94034314D03*
%TD*%
D26*
%TO.P,U3,1,GND*%
%TO.N,GND*%
X102100000Y-95266814D03*
%TO.P,U3,2,VO*%
%TO.N,+3.3V*%
X99800000Y-95266814D03*
%TO.P,U3,3,VI*%
%TO.N,+5V*%
X97500000Y-95266814D03*
D27*
%TO.P,U3,4*%
%TO.N,N/C*%
X99800000Y-101566814D03*
%TD*%
D17*
%TO.P,D10,1,K*%
%TO.N,4-20mA_1*%
X122685000Y-112934314D03*
D18*
%TO.P,D10,2,A*%
%TO.N,GND*%
X132845000Y-112934314D03*
%TD*%
D28*
%TO.P,C5,1*%
%TO.N,+5V*%
X94000000Y-94859314D03*
%TO.P,C5,2*%
%TO.N,GND*%
X94000000Y-96934314D03*
%TD*%
D11*
%TO.P,C2,1*%
%TO.N,12-24V*%
X89000000Y-91134314D03*
%TO.P,C2,2*%
%TO.N,GND*%
X89000000Y-86734314D03*
%TD*%
D10*
%TO.P,R4,1*%
%TO.N,Net-(R3-Pad2)*%
X111110000Y-88384314D03*
%TO.P,R4,2*%
%TO.N,Net-(D3-A)*%
X111110000Y-91484314D03*
%TD*%
D13*
%TO.P,R3,1*%
%TO.N,+5V*%
X108610000Y-91484314D03*
%TO.P,R3,2*%
%TO.N,Net-(R3-Pad2)*%
X108610000Y-88384314D03*
%TD*%
D29*
%TO.P,C9,1*%
%TO.N,+3.3V*%
X114537500Y-84434314D03*
%TO.P,C9,2*%
%TO.N,GND*%
X112462500Y-84434314D03*
%TD*%
D21*
%TO.P,R45,1*%
%TO.N,IN_D10*%
X193800000Y-120484314D03*
%TO.P,R45,2*%
%TO.N,Net-(R45-Pad2)*%
X193800000Y-114384314D03*
%TD*%
D30*
%TO.P,U2,1,GND*%
%TO.N,GND*%
X119405000Y-81569314D03*
%TO.P,U2,2,VDD*%
%TO.N,+3.3V*%
X119405000Y-82839314D03*
%TO.P,U2,3,EN*%
%TO.N,RESET_PIN*%
X119405000Y-84109314D03*
%TO.P,U2,4,SENSOR_VP*%
%TO.N,4-20mA_1*%
X119405000Y-85379314D03*
%TO.P,U2,5,SENSOR_VN*%
%TO.N,4-20mA_2*%
X119405000Y-86649314D03*
%TO.P,U2,6,IO34*%
%TO.N,0-10V_2*%
X119405000Y-87919314D03*
%TO.P,U2,7,IO35*%
%TO.N,4-20mA_0*%
X119405000Y-89189314D03*
%TO.P,U2,8,IO32*%
%TO.N,0-10V_0*%
X119405000Y-90459314D03*
%TO.P,U2,9,IO33*%
%TO.N,0-10V_1*%
X119405000Y-91729314D03*
%TO.P,U2,10,IO25*%
%TO.N,GPIO_11*%
X119405000Y-92999314D03*
%TO.P,U2,11,IO26*%
%TO.N,unconnected-(U2-IO26-Pad11)*%
X119405000Y-94269314D03*
%TO.P,U2,12,IO27*%
%TO.N,unconnected-(U2-IO27-Pad12)*%
X119405000Y-95539314D03*
%TO.P,U2,13,IO14*%
%TO.N,GPIO_2*%
X119405000Y-96809314D03*
%TO.P,U2,14,IO12*%
%TO.N,GPIO_0*%
X119405000Y-98079314D03*
D31*
%TO.P,U2,15,GND*%
%TO.N,GND*%
X122945000Y-99829314D03*
%TO.P,U2,16,IO13*%
%TO.N,GPIO_1*%
X124215000Y-99829314D03*
%TO.P,U2,17,SHD/SD2*%
%TO.N,SPI_HD*%
X125485000Y-99829314D03*
%TO.P,U2,18,SWP/SD3*%
%TO.N,SPI_WP*%
X126755000Y-99829314D03*
%TO.P,U2,19,SCS/CMD*%
%TO.N,SPI_CS*%
X128025000Y-99829314D03*
%TO.P,U2,20,SCK/CLK*%
%TO.N,SPI_CLK*%
X129295000Y-99829314D03*
%TO.P,U2,21,SDO/SD0*%
%TO.N,SPI_MISO*%
X130565000Y-99829314D03*
%TO.P,U2,22,SDI/SD1*%
%TO.N,SPI_MOSI*%
X131835000Y-99829314D03*
%TO.P,U2,23,IO15*%
%TO.N,GPIO_3*%
X133105000Y-99829314D03*
%TO.P,U2,24,IO2*%
%TO.N,PCB_LED_2*%
X134375000Y-99829314D03*
D32*
%TO.P,U2,25,IO0*%
%TO.N,BOOT_MODE*%
X137905000Y-98079314D03*
%TO.P,U2,26,IO4*%
%TO.N,PCB_LED_0*%
X137905000Y-96809314D03*
%TO.P,U2,27,IO16*%
%TO.N,GPIO_4*%
X137905000Y-95539314D03*
%TO.P,U2,28,IO17*%
%TO.N,GPIO_5*%
X137905000Y-94269314D03*
%TO.P,U2,29,IO5*%
%TO.N,PCB_LED_1*%
X137905000Y-92999314D03*
%TO.P,U2,30,IO18*%
%TO.N,GPIO_6*%
X137905000Y-91729314D03*
%TO.P,U2,31,IO19*%
%TO.N,GPIO_7*%
X137905000Y-90459314D03*
%TO.P,U2,32,NC*%
%TO.N,unconnected-(U2-NC-Pad32)*%
X137905000Y-89189314D03*
%TO.P,U2,33,IO21*%
%TO.N,GPIO_8*%
X137905000Y-87919314D03*
%TO.P,U2,34,RXD0/IO3*%
%TO.N,RX_PIN*%
X137905000Y-86649314D03*
%TO.P,U2,35,TXD0/IO1*%
%TO.N,TX_PIN*%
X137905000Y-85379314D03*
%TO.P,U2,36,IO22*%
%TO.N,GPIO_9*%
X137905000Y-84109314D03*
%TO.P,U2,37,IO23*%
%TO.N,GPIO_10*%
X137905000Y-82839314D03*
%TO.P,U2,38,GND*%
%TO.N,GND*%
X137905000Y-81569314D03*
D33*
%TO.P,U2,39,GND*%
X126450000Y-87384314D03*
D34*
X126450000Y-88146814D03*
D33*
X126450000Y-88909314D03*
D34*
X126450000Y-89671814D03*
D33*
X126450000Y-90434314D03*
D34*
X127212500Y-87384314D03*
X127212500Y-88909314D03*
X127212500Y-90434314D03*
D33*
X127975000Y-87384314D03*
D34*
X127975000Y-88146814D03*
D33*
X127975000Y-88909314D03*
D35*
X127975000Y-88909314D03*
D34*
X127975000Y-89671814D03*
D33*
X127975000Y-90434314D03*
D34*
X128737500Y-87384314D03*
X128737500Y-88909314D03*
X128737500Y-90434314D03*
D33*
X129500000Y-87384314D03*
D34*
X129500000Y-88146814D03*
D33*
X129500000Y-88909314D03*
D34*
X129500000Y-89671814D03*
D33*
X129500000Y-90434314D03*
%TD*%
D13*
%TO.P,R5,1*%
%TO.N,+3.3V*%
X181500000Y-91484314D03*
%TO.P,R5,2*%
%TO.N,RESET_PIN*%
X181500000Y-88384314D03*
%TD*%
D22*
%TO.P,U8,1*%
%TO.N,Net-(R43-Pad2)*%
X183640000Y-110734314D03*
D23*
%TO.P,U8,2*%
%TO.N,GND*%
X186180000Y-110734314D03*
%TO.P,U8,3*%
%TO.N,Net-(R44-Pad2)*%
X188720000Y-110734314D03*
%TO.P,U8,4*%
%TO.N,GND*%
X191260000Y-110734314D03*
%TO.P,U8,5*%
%TO.N,Net-(R45-Pad2)*%
X193800000Y-110734314D03*
%TO.P,U8,6*%
%TO.N,GND*%
X196340000Y-110734314D03*
%TO.P,U8,7*%
%TO.N,Net-(R46-Pad2)*%
X198880000Y-110734314D03*
%TO.P,U8,8*%
%TO.N,GND*%
X201420000Y-110734314D03*
%TO.P,U8,9*%
%TO.N,GPIO_11*%
X201420000Y-103114314D03*
%TO.P,U8,10*%
%TO.N,+3.3V*%
X198880000Y-103114314D03*
%TO.P,U8,11*%
%TO.N,GPIO_10*%
X196340000Y-103114314D03*
%TO.P,U8,12*%
%TO.N,+3.3V*%
X193800000Y-103114314D03*
%TO.P,U8,13*%
%TO.N,GPIO_9*%
X191260000Y-103114314D03*
%TO.P,U8,14*%
%TO.N,+3.3V*%
X188720000Y-103114314D03*
%TO.P,U8,15*%
%TO.N,GPIO_8*%
X186180000Y-103114314D03*
%TO.P,U8,16*%
%TO.N,+3.3V*%
X183640000Y-103114314D03*
%TD*%
D12*
%TO.P,D4,1,K*%
%TO.N,GND*%
X151475000Y-87234314D03*
%TO.P,D4,2,A*%
%TO.N,Net-(D4-A)*%
X148500000Y-87234314D03*
%TD*%
D13*
%TO.P,R13,1*%
%TO.N,Net-(R10-Pad2)*%
X84700000Y-121434314D03*
%TO.P,R13,2*%
%TO.N,Net-(U4B-+)*%
X84700000Y-118334314D03*
%TD*%
D25*
%TO.P,D3,1,K*%
%TO.N,GND*%
X111110000Y-97409314D03*
%TO.P,D3,2,A*%
%TO.N,Net-(D3-A)*%
X111110000Y-94434314D03*
%TD*%
D13*
%TO.P,R32,1*%
%TO.N,GPIO_1*%
X146710000Y-97134314D03*
%TO.P,R32,2*%
%TO.N,GND*%
X146710000Y-94034314D03*
%TD*%
D28*
%TO.P,C1,1*%
%TO.N,12-24V*%
X91500000Y-94859314D03*
%TO.P,C1,2*%
%TO.N,GND*%
X91500000Y-96934314D03*
%TD*%
D29*
%TO.P,C10,1*%
%TO.N,+3.3V*%
X114537500Y-81934314D03*
%TO.P,C10,2*%
%TO.N,GND*%
X112462500Y-81934314D03*
%TD*%
D13*
%TO.P,R33,1*%
%TO.N,GPIO_2*%
X150000000Y-97134314D03*
%TO.P,R33,2*%
%TO.N,GND*%
X150000000Y-94034314D03*
%TD*%
D11*
%TO.P,C6,1*%
%TO.N,+5V*%
X96000000Y-91134314D03*
%TO.P,C6,2*%
%TO.N,GND*%
X96000000Y-86734314D03*
%TD*%
D17*
%TO.P,D7,1,K*%
%TO.N,0-10V_1*%
X96420000Y-112934314D03*
D18*
%TO.P,D7,2,A*%
%TO.N,GND*%
X106580000Y-112934314D03*
%TD*%
D13*
%TO.P,R50,1*%
%TO.N,GPIO_11*%
X178870000Y-97134314D03*
%TO.P,R50,2*%
%TO.N,GND*%
X178870000Y-94034314D03*
%TD*%
D16*
%TO.P,R8,1*%
%TO.N,PCB_LED_2*%
X142937500Y-90434314D03*
%TO.P,R8,2*%
%TO.N,Net-(D5-A)*%
X146037500Y-90434314D03*
%TD*%
D21*
%TO.P,R30,1*%
%TO.N,IN_D3*%
X155780000Y-120484314D03*
%TO.P,R30,2*%
%TO.N,Net-(R30-Pad2)*%
X155780000Y-114384314D03*
%TD*%
D20*
%TO.P,J4,1,Pin_1*%
%TO.N,Input_4-20mA_0*%
X110000000Y-128934314D03*
%TO.P,J4,2,Pin_2*%
%TO.N,Input_4-20mA_1*%
X115000000Y-128934314D03*
%TO.P,J4,3,Pin_3*%
%TO.N,Input_4-20mA_2*%
X120000000Y-128934314D03*
%TO.P,J4,4,Pin_4*%
%TO.N,GND*%
X125000000Y-128934314D03*
%TD*%
D19*
%TO.P,R12,1*%
%TO.N,Net-(R12-Pad1)*%
X81550000Y-129700000D03*
%TO.P,R12,2*%
%TO.N,Net-(U4A-+)*%
X78450000Y-129700000D03*
%TD*%
D21*
%TO.P,R36,1*%
%TO.N,IN_D5*%
X167180000Y-120484314D03*
%TO.P,R36,2*%
%TO.N,Net-(R36-Pad2)*%
X167180000Y-114384314D03*
%TD*%
D13*
%TO.P,R49,1*%
%TO.N,GPIO_10*%
X175580000Y-97134314D03*
%TO.P,R49,2*%
%TO.N,GND*%
X175580000Y-94034314D03*
%TD*%
D17*
%TO.P,D9,1,K*%
%TO.N,4-20mA_0*%
X122685000Y-116934314D03*
D18*
%TO.P,D9,2,A*%
%TO.N,GND*%
X132845000Y-116934314D03*
%TD*%
D21*
%TO.P,R43,1*%
%TO.N,IN_D8*%
X183610000Y-120484314D03*
%TO.P,R43,2*%
%TO.N,Net-(R43-Pad2)*%
X183610000Y-114384314D03*
%TD*%
D13*
%TO.P,R24,1*%
%TO.N,4-20mA_0*%
X112215000Y-107484314D03*
%TO.P,R24,2*%
%TO.N,GND*%
X112215000Y-104384314D03*
%TD*%
D16*
%TO.P,R23,1*%
%TO.N,0-10V_2*%
X89950000Y-109934314D03*
%TO.P,R23,2*%
%TO.N,GND*%
X93050000Y-109934314D03*
%TD*%
D17*
%TO.P,D8,1,K*%
%TO.N,0-10V_2*%
X96420000Y-108934314D03*
D18*
%TO.P,D8,2,A*%
%TO.N,GND*%
X106580000Y-108934314D03*
%TD*%
D20*
%TO.P,J2,1,Pin_1*%
%TO.N,IN_D0*%
X139000000Y-128934314D03*
%TO.P,J2,2,Pin_2*%
%TO.N,IN_D1*%
X144000000Y-128934314D03*
%TO.P,J2,3,Pin_3*%
%TO.N,IN_D2*%
X149000000Y-128934314D03*
%TO.P,J2,4,Pin_4*%
%TO.N,IN_D3*%
X154000000Y-128934314D03*
%TO.P,J2,5,Pin_5*%
%TO.N,IN_D4*%
X159000000Y-128934314D03*
%TO.P,J2,6,Pin_6*%
%TO.N,IN_D5*%
X164000000Y-128934314D03*
%TO.P,J2,7,Pin_7*%
%TO.N,IN_D6*%
X169000000Y-128934314D03*
%TO.P,J2,8,Pin_8*%
%TO.N,IN_D7*%
X174000000Y-128934314D03*
%TO.P,J2,9,Pin_9*%
%TO.N,IN_D8*%
X179000000Y-128934314D03*
%TO.P,J2,10,Pin_10*%
%TO.N,IN_D9*%
X184000000Y-128934314D03*
%TO.P,J2,11,Pin_11*%
%TO.N,IN_D10*%
X189000000Y-128934314D03*
%TO.P,J2,12,Pin_12*%
%TO.N,IN_D11*%
X194000000Y-128934314D03*
%TD*%
D16*
%TO.P,R2,1*%
%TO.N,PCB_LED_0*%
X142925000Y-83934314D03*
%TO.P,R2,2*%
%TO.N,Net-(D2-A)*%
X146025000Y-83934314D03*
%TD*%
D19*
%TO.P,R14,1*%
%TO.N,Net-(R11-Pad2)*%
X93050000Y-115934314D03*
%TO.P,R14,2*%
%TO.N,Net-(U4C-+)*%
X89950000Y-115934314D03*
%TD*%
D28*
%TO.P,C4,1*%
%TO.N,/5V_REG*%
X80000000Y-94859314D03*
%TO.P,C4,2*%
%TO.N,GND*%
X80000000Y-96934314D03*
%TD*%
D10*
%TO.P,R16,1*%
%TO.N,Input_4-20mA_1*%
X115152500Y-118384314D03*
%TO.P,R16,2*%
%TO.N,GND*%
X115152500Y-121484314D03*
%TD*%
D17*
%TO.P,D11,1,K*%
%TO.N,4-20mA_2*%
X122685000Y-108934314D03*
D18*
%TO.P,D11,2,A*%
%TO.N,GND*%
X132845000Y-108934314D03*
%TD*%
D36*
%TO.P,U1,1,IN*%
%TO.N,12-24V*%
X88255000Y-95384314D03*
%TO.P,U1,2,GND*%
%TO.N,GND*%
X85975000Y-95384314D03*
D37*
X87500000Y-100009314D03*
X84450000Y-100009314D03*
D38*
X85975000Y-101684314D03*
D37*
X87500000Y-103359314D03*
X84450000Y-103359314D03*
D36*
%TO.P,U1,3,OUT*%
%TO.N,/5V_REG*%
X83695000Y-95384314D03*
%TD*%
D24*
%TO.P,U5,1*%
%TO.N,4-20mA_0*%
X111690000Y-115409314D03*
%TO.P,U5,2,-*%
X112960000Y-115409314D03*
%TO.P,U5,3,+*%
%TO.N,Input_4-20mA_0*%
X114230000Y-115409314D03*
%TO.P,U5,4,V+*%
%TO.N,+5V*%
X115500000Y-115409314D03*
%TO.P,U5,5,+*%
%TO.N,Input_4-20mA_1*%
X116770000Y-115409314D03*
%TO.P,U5,6,-*%
%TO.N,4-20mA_1*%
X118040000Y-115409314D03*
%TO.P,U5,7*%
X119310000Y-115409314D03*
%TO.P,U5,8*%
%TO.N,4-20mA_2*%
X119310000Y-110459314D03*
%TO.P,U5,9,-*%
X118040000Y-110459314D03*
%TO.P,U5,10,+*%
%TO.N,Input_4-20mA_2*%
X116770000Y-110459314D03*
%TO.P,U5,11,V-*%
%TO.N,GND*%
X115500000Y-110459314D03*
%TO.P,U5,12,+*%
%TO.N,unconnected-(U5D-+-Pad12)*%
X114230000Y-110459314D03*
%TO.P,U5,13,-*%
%TO.N,unconnected-(U5D---Pad13)*%
X112960000Y-110459314D03*
%TO.P,U5,14*%
%TO.N,unconnected-(U5-Pad14)*%
X111690000Y-110459314D03*
%TD*%
D21*
%TO.P,R37,1*%
%TO.N,IN_D6*%
X172260000Y-120484314D03*
%TO.P,R37,2*%
%TO.N,Net-(R37-Pad2)*%
X172260000Y-114384314D03*
%TD*%
D17*
%TO.P,J7,1,Pin_1*%
%TO.N,/5V_REG*%
X79000000Y-81764314D03*
D18*
%TO.P,J7,2,Pin_2*%
%TO.N,+5V*%
X79000000Y-79224314D03*
%TO.P,J7,3,Pin_3*%
%TO.N,5V_IN*%
X79000000Y-76684314D03*
%TD*%
D39*
%TO.N,GPIO_2*%
X135700000Y-97834314D03*
%TO.N,PCB_LED_2*%
X142900000Y-92134314D03*
%TO.N,PCB_LED_1*%
X142800000Y-88834314D03*
%TO.N,PCB_LED_0*%
X142900000Y-85600000D03*
X135800000Y-85934314D03*
%TO.N,PCB_LED_1*%
X135800000Y-89034314D03*
%TO.N,PCB_LED_2*%
X131300000Y-92134314D03*
%TO.N,GND*%
X112215000Y-102900000D03*
X112215000Y-122950000D03*
X111150000Y-83150000D03*
X91500000Y-99350000D03*
X191750000Y-88459314D03*
D40*
X84450000Y-100009314D03*
D39*
X175580000Y-92300000D03*
X83000000Y-108550000D03*
D40*
X104050000Y-95250000D03*
D39*
X122950000Y-102100000D03*
D40*
X91800000Y-111400000D03*
D39*
X153300000Y-92300000D03*
X118040000Y-122950000D03*
X115152500Y-122950000D03*
D40*
X84450000Y-103359314D03*
D39*
X150000000Y-92300000D03*
X154100000Y-87234314D03*
X107400000Y-82100000D03*
X172290000Y-92300000D03*
X115152500Y-102900000D03*
D40*
X100250000Y-85400000D03*
X112655000Y-96300000D03*
D39*
X116580920Y-108750000D03*
X83000000Y-126900000D03*
D40*
X85975000Y-101684314D03*
D39*
X163000000Y-92300000D03*
X118040000Y-102900000D03*
X159870000Y-92300000D03*
X94000000Y-99350000D03*
D40*
X84600000Y-85350000D03*
D39*
X156580000Y-92300000D03*
X89084314Y-121434314D03*
X144750000Y-92300000D03*
X79100000Y-117200000D03*
X146700000Y-92300000D03*
X178870000Y-92300000D03*
X154100000Y-90450000D03*
X169000000Y-92300000D03*
X139850000Y-80800000D03*
X80300000Y-125400000D03*
X154100000Y-83934314D03*
X166000000Y-92300000D03*
D40*
X87500000Y-103359314D03*
D39*
X80000000Y-98500000D03*
D40*
X87500000Y-100009314D03*
X98400000Y-85350000D03*
D39*
X117600000Y-80800000D03*
D40*
X86750000Y-85300000D03*
D39*
%TO.N,+5V*%
X115500000Y-113234314D03*
D40*
X78150000Y-93334314D03*
X95900000Y-93334314D03*
X108600000Y-93334314D03*
D39*
X108600000Y-115000000D03*
X93500000Y-106734314D03*
D40*
X77900000Y-107600000D03*
%TO.N,+3.3V*%
X203800000Y-105200000D03*
X203800000Y-93550000D03*
X181500000Y-93500000D03*
X106800000Y-105234314D03*
D39*
%TO.N,0-10V_0*%
X81000000Y-117100000D03*
X104665686Y-100668628D03*
X115934314Y-100668628D03*
%TO.N,0-10V_1*%
X86942500Y-113357500D03*
X94600000Y-102034314D03*
X114650000Y-101500000D03*
%TO.N,0-10V_2*%
X104500000Y-99234314D03*
D40*
X90000000Y-108000000D03*
D39*
X114600000Y-99234314D03*
%TO.N,4-20mA_0*%
X110750000Y-117084314D03*
%TO.N,4-20mA_1*%
X120400000Y-115434314D03*
%TO.N,RESET_PIN*%
X121745000Y-84134314D03*
X179750000Y-88350000D03*
%TO.N,BOOT_MODE*%
X202600000Y-107334314D03*
X137400000Y-107434314D03*
%TO.N,GPIO_0*%
X143100000Y-106500000D03*
X119950000Y-106450000D03*
%TO.N,GPIO_1*%
X124215000Y-104034314D03*
%TO.N,GPIO_2*%
X135700000Y-103634314D03*
X121200000Y-96834314D03*
%TO.N,GPIO_3*%
X133500000Y-102234314D03*
%TO.N,GPIO_4*%
X139700000Y-99114312D03*
%TO.N,GPIO_5*%
X140900001Y-98914314D03*
%TO.N,GPIO_6*%
X141700000Y-98314314D03*
%TO.N,GPIO_7*%
X141945000Y-97334314D03*
%TO.N,GPIO_8*%
X134900000Y-95834314D03*
%TO.N,GPIO_9*%
X133200000Y-95034314D03*
%TO.N,GPIO_10*%
X132300000Y-94234314D03*
%TO.N,GPIO_11*%
X121745000Y-93034314D03*
%TD*%
D41*
%TO.N,PCB_LED_2*%
X142937500Y-92096814D02*
X142937500Y-90434314D01*
X142900000Y-92134314D02*
X142937500Y-92096814D01*
%TO.N,PCB_LED_0*%
X142925000Y-85575000D02*
X142925000Y-83934314D01*
X142900000Y-85600000D02*
X142925000Y-85575000D01*
X142900000Y-85634314D02*
X142900000Y-85600000D01*
%TO.N,PCB_LED_1*%
X142800000Y-88834314D02*
X142800000Y-87371814D01*
X142800000Y-87371814D02*
X142937500Y-87234314D01*
%TO.N,PCB_LED_0*%
X134743629Y-96809314D02*
X137405000Y-96809314D01*
X134100000Y-96165685D02*
X134743629Y-96809314D01*
X134100000Y-87634314D02*
X134100000Y-96165685D01*
X135800000Y-85934314D02*
X134100000Y-87634314D01*
X135800000Y-85934314D02*
X135800000Y-85934314D01*
%TO.N,GPIO_8*%
X135697843Y-87919314D02*
X137405000Y-87919314D01*
X134900000Y-88717157D02*
X135697843Y-87919314D01*
X134900000Y-95834314D02*
X134900000Y-88717157D01*
%TO.N,PCB_LED_2*%
X131300000Y-95334314D02*
X134375000Y-98409314D01*
X134375000Y-98409314D02*
X134375000Y-99329314D01*
X131300000Y-92134314D02*
X131300000Y-95334314D01*
D42*
%TO.N,12-24V*%
X89000000Y-90434314D02*
X89000000Y-91134314D01*
X91500000Y-90234314D02*
X91500000Y-90734314D01*
X96100000Y-82634314D02*
X91500000Y-87234314D01*
X90900000Y-91334314D02*
X91500000Y-91934314D01*
X91500000Y-90734314D02*
X90900000Y-91334314D01*
X91500000Y-92234314D02*
X91500000Y-94859314D01*
X91500000Y-90334314D02*
X91500000Y-90234314D01*
X91500000Y-94859314D02*
X88780000Y-94859314D01*
X90700000Y-91134314D02*
X91500000Y-90334314D01*
X89000000Y-91134314D02*
X90700000Y-91134314D01*
X100500000Y-81434314D02*
X99300000Y-82634314D01*
X91500000Y-87234314D02*
X91500000Y-90234314D01*
X90700000Y-91134314D02*
X90900000Y-91334314D01*
X91500000Y-91934314D02*
X91500000Y-92234314D01*
X88780000Y-94859314D02*
X88255000Y-95384314D01*
X99300000Y-82634314D02*
X96100000Y-82634314D01*
X91500000Y-90734314D02*
X91500000Y-92234314D01*
X100500000Y-78934314D02*
X100500000Y-81434314D01*
%TO.N,GND*%
X159870000Y-92700000D02*
X159870000Y-94034314D01*
X91800000Y-111400000D02*
X92450000Y-111400000D01*
X107400000Y-82100000D02*
X107396814Y-82096814D01*
X189250000Y-96409314D02*
X194250000Y-96409314D01*
X117600000Y-80800000D02*
X118369314Y-81569314D01*
X144750000Y-92300000D02*
X143420000Y-93630000D01*
D41*
X80050000Y-125400000D02*
X79000000Y-124350000D01*
D42*
X154100000Y-87234314D02*
X151475000Y-87234314D01*
X91500000Y-96934314D02*
X91500000Y-99350000D01*
X112215000Y-122950000D02*
X112215000Y-121484314D01*
X112655000Y-96300000D02*
X112655000Y-96904314D01*
X154084314Y-90434314D02*
X151475000Y-90434314D01*
X107396814Y-82096814D02*
X105500000Y-82096814D01*
X166000000Y-92700000D02*
X166000000Y-94034314D01*
D41*
X80300000Y-125400000D02*
X80050000Y-125400000D01*
D42*
X189250000Y-88459314D02*
X189250000Y-96409314D01*
X137405000Y-81569314D02*
X139080686Y-81569314D01*
X178870000Y-92700000D02*
X178870000Y-94034314D01*
X154100000Y-90450000D02*
X154084314Y-90434314D01*
X153300000Y-94024314D02*
X153290000Y-94034314D01*
X122945000Y-102095000D02*
X122945000Y-99329314D01*
X114200000Y-97409314D02*
X113200000Y-97409314D01*
X143420000Y-93630000D02*
X143420000Y-94034314D01*
X93050000Y-112934314D02*
X93050000Y-111400000D01*
X102116814Y-95250000D02*
X102100000Y-95266814D01*
X112462500Y-83150000D02*
X111150000Y-83150000D01*
X94000000Y-96934314D02*
X94000000Y-99350000D01*
X98400000Y-85350000D02*
X97384314Y-85350000D01*
X93050000Y-112934314D02*
X93050000Y-112000000D01*
X194250000Y-96409314D02*
X194250000Y-88459314D01*
D41*
X83000000Y-126900000D02*
X81550000Y-126900000D01*
D42*
X112655000Y-96864314D02*
X113200000Y-97409314D01*
X83000000Y-108550000D02*
X83000000Y-110459314D01*
D41*
X79100000Y-117200000D02*
X79100000Y-118650000D01*
D42*
X92450000Y-111400000D02*
X93050000Y-111400000D01*
X175580000Y-92700000D02*
X175580000Y-94034314D01*
X118040000Y-122950000D02*
X118040000Y-121484314D01*
X104050000Y-95250000D02*
X102116814Y-95250000D01*
X86750000Y-85300000D02*
X86800000Y-85350000D01*
X87615686Y-85350000D02*
X89000000Y-86734314D01*
X163000000Y-92700000D02*
X163000000Y-94034314D01*
X83384314Y-85350000D02*
X82000000Y-86734314D01*
D41*
X79100000Y-118650000D02*
X78950000Y-118800000D01*
D42*
X146700000Y-92300000D02*
X146710000Y-92310000D01*
X112215000Y-102900000D02*
X112215000Y-104384314D01*
X150000000Y-92700000D02*
X150000000Y-94034314D01*
X116234315Y-108750000D02*
X115500000Y-109484315D01*
X189250000Y-88459314D02*
X191750000Y-88459314D01*
X89084314Y-121434314D02*
X87500000Y-121434314D01*
X80000000Y-98500000D02*
X80000000Y-96934314D01*
X86800000Y-85350000D02*
X87615686Y-85350000D01*
X139080686Y-81569314D02*
X139850000Y-80800000D01*
X93050000Y-112000000D02*
X92450000Y-111400000D01*
X151462500Y-83934314D02*
X154100000Y-83934314D01*
X85975000Y-95384314D02*
X85975000Y-101684314D01*
X100250000Y-85400000D02*
X101499020Y-85400000D01*
X156580000Y-92700000D02*
X156580000Y-94034314D01*
X84600000Y-85350000D02*
X83384314Y-85350000D01*
X101499020Y-85400000D02*
X102833334Y-86734314D01*
X118040000Y-102900000D02*
X118040000Y-104384314D01*
X116580920Y-108750000D02*
X116234315Y-108750000D01*
X169000000Y-92700000D02*
X169000000Y-94034314D01*
X191750000Y-88459314D02*
X194250000Y-88459314D01*
X115152500Y-102900000D02*
X115152500Y-104384314D01*
X113200000Y-97409314D02*
X112150000Y-97409314D01*
X97384314Y-85350000D02*
X96000000Y-86734314D01*
X93050000Y-111400000D02*
X93050000Y-109934314D01*
X115500000Y-109484315D02*
X115500000Y-110459314D01*
X93050000Y-109934314D02*
X93050000Y-110800000D01*
X153300000Y-92700000D02*
X153300000Y-94024314D01*
X93050000Y-110800000D02*
X92450000Y-111400000D01*
X112655000Y-96904314D02*
X112150000Y-97409314D01*
X146710000Y-92310000D02*
X146710000Y-94034314D01*
X172290000Y-92700000D02*
X172290000Y-94034314D01*
X115152500Y-122950000D02*
X115152500Y-121484314D01*
X112655000Y-96300000D02*
X112655000Y-96864314D01*
X112150000Y-97409314D02*
X111110000Y-97409314D01*
X122950000Y-102100000D02*
X122945000Y-102095000D01*
X112462500Y-84434314D02*
X112462500Y-83150000D01*
X112462500Y-83150000D02*
X112462500Y-81934314D01*
X86800000Y-85350000D02*
X86850000Y-85350000D01*
X118369314Y-81569314D02*
X119905000Y-81569314D01*
%TO.N,/5V_REG*%
X80000000Y-91700000D02*
X80000000Y-92000000D01*
X79000000Y-90000000D02*
X79000000Y-81764314D01*
X80000000Y-92000000D02*
X80000000Y-92334314D01*
X83695000Y-95384314D02*
X83695000Y-91695000D01*
X80900000Y-91134314D02*
X80565686Y-91134314D01*
X83134314Y-91134314D02*
X82000000Y-91134314D01*
X80565686Y-91134314D02*
X80000000Y-91700000D01*
X79700000Y-90700000D02*
X79000000Y-90000000D01*
X83695000Y-91695000D02*
X83134314Y-91134314D01*
X80565686Y-91134314D02*
X80134314Y-91134314D01*
X82000000Y-91134314D02*
X80900000Y-91134314D01*
X80000000Y-92334314D02*
X80000000Y-91000000D01*
X80134314Y-91134314D02*
X79700000Y-90700000D01*
X80000000Y-91000000D02*
X79700000Y-90700000D01*
X80000000Y-92334314D02*
X80000000Y-94859314D01*
%TO.N,+5V*%
X94565686Y-91134314D02*
X96000000Y-91134314D01*
X82100000Y-112834314D02*
X83000000Y-113734314D01*
X95700000Y-94859314D02*
X96300000Y-94859314D01*
X95700000Y-95434314D02*
X95700000Y-95359314D01*
D41*
X108600000Y-93334314D02*
X108600000Y-91494314D01*
D42*
X95700000Y-95359314D02*
X95200000Y-94859314D01*
X95200000Y-94859314D02*
X95700000Y-94859314D01*
X95900000Y-91234314D02*
X96000000Y-91134314D01*
X78800000Y-112834314D02*
X82100000Y-112834314D01*
X96200000Y-94859314D02*
X95700000Y-95359314D01*
D41*
X108600000Y-91494314D02*
X108610000Y-91484314D01*
D42*
X95700000Y-95434314D02*
X95700000Y-94859314D01*
D41*
X108600000Y-115000000D02*
X108600000Y-93334314D01*
D42*
X93500000Y-101434314D02*
X95700000Y-99234314D01*
X94000000Y-91700000D02*
X94565686Y-91134314D01*
X93500000Y-106734314D02*
X93500000Y-101434314D01*
X83000000Y-113734314D02*
X83000000Y-115409314D01*
X96300000Y-94859314D02*
X96200000Y-94859314D01*
X94000000Y-94859314D02*
X95200000Y-94859314D01*
X76800000Y-91984314D02*
X76800000Y-80010101D01*
X94000000Y-94859314D02*
X94000000Y-91700000D01*
X77900000Y-107600000D02*
X77900000Y-111934314D01*
X96300000Y-94859314D02*
X97092500Y-94859314D01*
X76800000Y-80010101D02*
X77585787Y-79224314D01*
X95900000Y-93334314D02*
X95900000Y-91234314D01*
X97092500Y-94859314D02*
X97500000Y-95266814D01*
X77900000Y-111934314D02*
X78800000Y-112834314D01*
D41*
X115500000Y-113234314D02*
X115500000Y-115409314D01*
D42*
X95700000Y-99234314D02*
X95700000Y-95434314D01*
X77585787Y-79224314D02*
X79000000Y-79224314D01*
X78150000Y-93334314D02*
X76800000Y-91984314D01*
%TO.N,+3.3V*%
X113700000Y-86434314D02*
X109300000Y-86434314D01*
D41*
X114537500Y-81934314D02*
X115900000Y-81934314D01*
X114537500Y-84434314D02*
X114537500Y-81934314D01*
D42*
X105400000Y-91134314D02*
X105500000Y-91034314D01*
X101300000Y-91134314D02*
X102833334Y-91134314D01*
X114537500Y-84765564D02*
X114537500Y-84434314D01*
D41*
X116805000Y-82839314D02*
X119905000Y-82839314D01*
X114200000Y-86934314D02*
X114200000Y-88384314D01*
X114200000Y-86934314D02*
X113700000Y-86434314D01*
D42*
X104800000Y-91134314D02*
X105500000Y-91834314D01*
D41*
X114537500Y-85996814D02*
X114537500Y-84434314D01*
D42*
X203800000Y-105200000D02*
X203800000Y-93550000D01*
X105500000Y-90134314D02*
X105500000Y-84171814D01*
X114100000Y-86434314D02*
X113700000Y-86434314D01*
X104200000Y-91134314D02*
X105400000Y-91134314D01*
X102833334Y-91134314D02*
X104200000Y-91134314D01*
X105500000Y-92134314D02*
X105500000Y-91834314D01*
X109300000Y-86434314D02*
X107037500Y-84171814D01*
D41*
X115900000Y-81934314D02*
X116805000Y-82839314D01*
D42*
X105500000Y-90434314D02*
X105500000Y-90134314D01*
X105500000Y-91034314D02*
X105500000Y-90634314D01*
X104800000Y-91134314D02*
X105500000Y-90434314D01*
D41*
X114100000Y-86434314D02*
X114200000Y-86534314D01*
D42*
X105500000Y-96570798D02*
X105500000Y-92134314D01*
X105500000Y-90634314D02*
X105500000Y-90134314D01*
X99800000Y-92634314D02*
X101300000Y-91134314D01*
X203800000Y-93550000D02*
X202000000Y-91750000D01*
D41*
X167180000Y-103114314D02*
X166780000Y-103114314D01*
D42*
X107037500Y-84171814D02*
X105500000Y-84171814D01*
D41*
X114200000Y-86534314D02*
X114200000Y-86934314D01*
D42*
X106800000Y-97870798D02*
X105500000Y-96570798D01*
X106800000Y-105234314D02*
X106800000Y-97870798D01*
X99800000Y-95266814D02*
X99800000Y-92634314D01*
D41*
X202050000Y-91484314D02*
X202000000Y-91484314D01*
D42*
X181500000Y-91484314D02*
X181500000Y-93500000D01*
X105500000Y-91834314D02*
X105500000Y-91034314D01*
D41*
X114100000Y-86434314D02*
X114537500Y-85996814D01*
D42*
X202000000Y-91750000D02*
X202000000Y-91484314D01*
D41*
%TO.N,Net-(D1-A)*%
X114200000Y-94434314D02*
X114200000Y-91484314D01*
%TO.N,Net-(D2-A)*%
X148487500Y-83934314D02*
X146025000Y-83934314D01*
%TO.N,Net-(D3-A)*%
X111110000Y-91484314D02*
X111110000Y-94434314D01*
%TO.N,Net-(D4-A)*%
X148500000Y-87234314D02*
X146037500Y-87234314D01*
%TO.N,Net-(D5-A)*%
X148500000Y-90434314D02*
X146037500Y-90434314D01*
%TO.N,0-10V_0*%
X115934314Y-100668628D02*
X117000000Y-99602942D01*
X104665686Y-113268628D02*
X101000000Y-116934314D01*
X77900000Y-116699314D02*
X79190000Y-115409314D01*
X117000000Y-99602942D02*
X117000000Y-91634314D01*
X77900000Y-120150000D02*
X77900000Y-116699314D01*
X80460000Y-115960000D02*
X80460000Y-115409314D01*
X96204314Y-116850000D02*
X96120000Y-116934314D01*
X80460000Y-116560000D02*
X80460000Y-115409314D01*
X118175000Y-90459314D02*
X119905000Y-90459314D01*
X101000000Y-116934314D02*
X96420000Y-116934314D01*
X117000000Y-91634314D02*
X118175000Y-90459314D01*
X80460000Y-115409314D02*
X79190000Y-115409314D01*
X79000000Y-121250000D02*
X77900000Y-120150000D01*
X104665686Y-100668628D02*
X104665686Y-113268628D01*
X81000000Y-117100000D02*
X80460000Y-116560000D01*
%TO.N,0-10V_1*%
X86810000Y-116644314D02*
X87500000Y-117334314D01*
X86810000Y-115409314D02*
X85540000Y-115409314D01*
X86942500Y-113357500D02*
X86810000Y-113490000D01*
X118175000Y-91729314D02*
X119905000Y-91729314D01*
X87500000Y-117334314D02*
X87500000Y-118334314D01*
X117600000Y-92304314D02*
X118175000Y-91729314D01*
X94600000Y-111114314D02*
X96420000Y-112934314D01*
X117600000Y-100134313D02*
X117600000Y-92304314D01*
X86810000Y-115409314D02*
X86810000Y-116644314D01*
X94600000Y-102034314D02*
X94600000Y-111114314D01*
X114650000Y-101500000D02*
X116234313Y-101500000D01*
X116234313Y-101500000D02*
X117600000Y-100134313D01*
X86810000Y-113490000D02*
X86810000Y-115409314D01*
%TO.N,0-10V_2*%
X103100000Y-107934314D02*
X102100000Y-108934314D01*
X89950000Y-108050000D02*
X89950000Y-109934314D01*
X114600000Y-99234314D02*
X115800000Y-98034314D01*
X102100000Y-108934314D02*
X96420000Y-108934314D01*
X86810000Y-110459314D02*
X89425000Y-110459314D01*
X104500000Y-99234314D02*
X103100000Y-100634314D01*
X103100000Y-100634314D02*
X103100000Y-107934314D01*
X115800000Y-98034314D02*
X115800000Y-90034314D01*
X89425000Y-110459314D02*
X89950000Y-109934314D01*
X115800000Y-90034314D02*
X117915000Y-87919314D01*
X90000000Y-108000000D02*
X89950000Y-108050000D01*
X117915000Y-87919314D02*
X119905000Y-87919314D01*
X86810000Y-110459314D02*
X85540000Y-110459314D01*
%TO.N,4-20mA_0*%
X116400000Y-90964314D02*
X116400000Y-98565685D01*
X110000000Y-113719314D02*
X111690000Y-115409314D01*
X112215000Y-106565000D02*
X112215000Y-107484314D01*
X119905000Y-89189314D02*
X118175000Y-89189314D01*
X112960000Y-115409314D02*
X111690000Y-115409314D01*
X110750000Y-105100000D02*
X112215000Y-106565000D01*
X114815685Y-100150000D02*
X111900000Y-100150000D01*
X111690000Y-116144314D02*
X111690000Y-115409314D01*
X111900000Y-100150000D02*
X110750000Y-101300000D01*
X112215000Y-107484314D02*
X111415686Y-107484314D01*
X110750000Y-117084314D02*
X111690000Y-116144314D01*
X110000000Y-108900000D02*
X110000000Y-113719314D01*
X118175000Y-89189314D02*
X116400000Y-90964314D01*
X110750000Y-101300000D02*
X110750000Y-105100000D01*
X116400000Y-98565685D02*
X114815685Y-100150000D01*
X111415686Y-107484314D02*
X110000000Y-108900000D01*
%TO.N,4-20mA_1*%
X124450000Y-111169314D02*
X122685000Y-112934314D01*
X118040000Y-114274314D02*
X118040000Y-115409314D01*
X123145000Y-97129314D02*
X122000000Y-98274314D01*
X111800000Y-112434314D02*
X116200000Y-112434314D01*
X123145000Y-87889314D02*
X123145000Y-97129314D01*
X111600000Y-108534314D02*
X110990000Y-109144314D01*
X124450000Y-107400000D02*
X124450000Y-111169314D01*
X115152500Y-107484314D02*
X114102500Y-108534314D01*
X120400000Y-115434314D02*
X120375000Y-115409314D01*
X114102500Y-108534314D02*
X111600000Y-108534314D01*
X122000000Y-104950000D02*
X124450000Y-107400000D01*
X120375000Y-115409314D02*
X119310000Y-115409314D01*
X110990000Y-109144314D02*
X110990000Y-111624314D01*
X120635000Y-85379314D02*
X123145000Y-87889314D01*
X116200000Y-112434314D02*
X118040000Y-114274314D01*
X119905000Y-85379314D02*
X120635000Y-85379314D01*
X120375000Y-115409314D02*
X120210000Y-115409314D01*
X118040000Y-115409314D02*
X119310000Y-115409314D01*
X122000000Y-98274314D02*
X122000000Y-104950000D01*
X110990000Y-111624314D02*
X111800000Y-112434314D01*
%TO.N,4-20mA_2*%
X120415000Y-86649314D02*
X122545000Y-88779314D01*
X119310000Y-110459314D02*
X118040000Y-110459314D01*
X121300000Y-107549314D02*
X122685000Y-108934314D01*
X122545000Y-88779314D02*
X122545000Y-96620685D01*
X121300000Y-107050000D02*
X120865686Y-107484314D01*
X121300000Y-107034314D02*
X121300000Y-107549314D01*
X121331371Y-97834314D02*
X121300000Y-97834314D01*
X121300000Y-97834314D02*
X121300000Y-107034314D01*
X121300000Y-107034314D02*
X121300000Y-107050000D01*
X118040000Y-107484314D02*
X120800000Y-107484314D01*
X122545000Y-96620685D02*
X121331371Y-97834314D01*
X118040000Y-110459314D02*
X118040000Y-107484314D01*
X121235000Y-107484314D02*
X122685000Y-108934314D01*
X120800000Y-107484314D02*
X121235000Y-107484314D01*
X120865686Y-107484314D02*
X120800000Y-107484314D01*
X119905000Y-86649314D02*
X120415000Y-86649314D01*
D42*
%TO.N,5V_IN*%
X95500000Y-78934314D02*
X93250000Y-76684314D01*
X93250000Y-76684314D02*
X79000000Y-76684314D01*
D41*
%TO.N,IN_D5*%
X165950000Y-120484314D02*
X167180000Y-120484314D01*
X164000000Y-128934314D02*
X167180000Y-125754314D01*
X167180000Y-125754314D02*
X167180000Y-120484314D01*
%TO.N,IN_D0*%
X139000000Y-128934314D02*
X140540000Y-127394314D01*
X140540000Y-127394314D02*
X140540000Y-120484314D01*
%TO.N,IN_D4*%
X160950000Y-120484314D02*
X162100000Y-120484314D01*
X162100000Y-125834314D02*
X162100000Y-120484314D01*
X159000000Y-128934314D02*
X162100000Y-125834314D01*
%TO.N,IN_D7*%
X175950000Y-120484314D02*
X177340000Y-120484314D01*
X174000000Y-128934314D02*
X177340000Y-125594314D01*
X177340000Y-125594314D02*
X177340000Y-120484314D01*
%TO.N,IN_D10*%
X192450000Y-120484314D02*
X193800000Y-120484314D01*
X193800000Y-124134314D02*
X193800000Y-120484314D01*
X189000000Y-128934314D02*
X193800000Y-124134314D01*
%TO.N,IN_D2*%
X150700000Y-127234314D02*
X150700000Y-120484314D01*
X149000000Y-128934314D02*
X150700000Y-127234314D01*
%TO.N,IN_D3*%
X155780000Y-127154314D02*
X155780000Y-120484314D01*
X154000000Y-128934314D02*
X155780000Y-127154314D01*
%TO.N,IN_D11*%
X198880000Y-124054314D02*
X198880000Y-120484314D01*
X197750000Y-120484314D02*
X198880000Y-120484314D01*
X194000000Y-128934314D02*
X198880000Y-124054314D01*
%TO.N,IN_D9*%
X188720000Y-124214314D02*
X188720000Y-120484314D01*
X187150000Y-120484314D02*
X188720000Y-120484314D01*
X184000000Y-128934314D02*
X188720000Y-124214314D01*
%TO.N,IN_D1*%
X145620000Y-120484314D02*
X145620000Y-127314314D01*
X145620000Y-127314314D02*
X144000000Y-128934314D01*
%TO.N,IN_D8*%
X183610000Y-124324314D02*
X183610000Y-120484314D01*
X179000000Y-128700000D02*
X179000000Y-128934314D01*
X179000000Y-128934314D02*
X183610000Y-124324314D01*
%TO.N,IN_D6*%
X172260000Y-125674314D02*
X172260000Y-120484314D01*
X170950000Y-120484314D02*
X172260000Y-120484314D01*
X169000000Y-128934314D02*
X172260000Y-125674314D01*
%TO.N,Input_0-10V_2*%
X89950000Y-118934314D02*
X96500000Y-125484314D01*
X96500000Y-125484314D02*
X96500000Y-128934314D01*
%TO.N,Input_0-10V_1*%
X91500000Y-128934314D02*
X91284314Y-128934314D01*
X86915686Y-124350000D02*
X91500000Y-128934314D01*
X81900000Y-124350000D02*
X86915686Y-124350000D01*
%TO.N,Input_0-10V_0*%
X82934314Y-132500000D02*
X86500000Y-128934314D01*
X81550000Y-132500000D02*
X82934314Y-132500000D01*
%TO.N,Input_4-20mA_1*%
X116770000Y-116766814D02*
X116770000Y-115409314D01*
X115152500Y-118384314D02*
X113600000Y-119936814D01*
X113600000Y-119936814D02*
X113600000Y-127534314D01*
X115152500Y-118384314D02*
X116770000Y-116766814D01*
X113600000Y-127534314D02*
X115000000Y-128934314D01*
%TO.N,Input_4-20mA_2*%
X120050000Y-118384314D02*
X118040000Y-118384314D01*
X116770000Y-111504314D02*
X118000000Y-112734314D01*
X121200000Y-117234314D02*
X120050000Y-118384314D01*
X116600000Y-119824314D02*
X116600000Y-125534314D01*
X121200000Y-114734314D02*
X121200000Y-117234314D01*
X119200000Y-112734314D02*
X121200000Y-114734314D01*
X118000000Y-112734314D02*
X119200000Y-112734314D01*
X116600000Y-125534314D02*
X120000000Y-128934314D01*
X118040000Y-118384314D02*
X116600000Y-119824314D01*
X116770000Y-110459314D02*
X116770000Y-111504314D01*
%TO.N,Input_4-20mA_0*%
X110000000Y-128934314D02*
X110000000Y-120599314D01*
X112215000Y-118384314D02*
X114230000Y-116369314D01*
X110000000Y-120599314D02*
X112215000Y-118384314D01*
X112215000Y-118384314D02*
X112215000Y-118519314D01*
X114230000Y-116369314D02*
X114230000Y-115409314D01*
%TO.N,RX_PIN*%
X163110000Y-82960000D02*
X163110000Y-85650000D01*
X137405000Y-86649314D02*
X138985000Y-86649314D01*
X141500000Y-82334314D02*
X142640000Y-81194314D01*
X138985000Y-86649314D02*
X141500000Y-84134314D01*
X142640000Y-81194314D02*
X161344314Y-81194314D01*
X141500000Y-84134314D02*
X141500000Y-82334314D01*
X161344314Y-81194314D02*
X163110000Y-82960000D01*
%TO.N,unconnected-(J5-Pin_1-Pad1)*%
X161450000Y-85980000D02*
X161430000Y-86000000D01*
%TO.N,TX_PIN*%
X142400000Y-80334314D02*
X163734314Y-80334314D01*
X139135000Y-85379314D02*
X140600000Y-83914314D01*
X140600000Y-83914314D02*
X140600000Y-82134314D01*
X165650000Y-82250000D02*
X165650000Y-85650000D01*
X163734314Y-80334314D02*
X165650000Y-82250000D01*
X137405000Y-85379314D02*
X139135000Y-85379314D01*
X140600000Y-82134314D02*
X142400000Y-80334314D01*
%TO.N,SPI_HD*%
X122460000Y-120900000D02*
X125485000Y-117875000D01*
X125485000Y-117875000D02*
X125485000Y-99329314D01*
%TO.N,SPI_WP*%
X126755000Y-119145000D02*
X126755000Y-99329314D01*
X125000000Y-120900000D02*
X126755000Y-119145000D01*
%TO.N,SPI_MISO*%
X130565000Y-118845000D02*
X130565000Y-99329314D01*
X132620000Y-120900000D02*
X130565000Y-118845000D01*
%TO.N,SPI_CLK*%
X130080000Y-120900000D02*
X129295000Y-120115000D01*
X129295000Y-120115000D02*
X129295000Y-99329314D01*
%TO.N,SPI_CS*%
X128025000Y-120415000D02*
X128025000Y-99329314D01*
X127540000Y-120900000D02*
X128025000Y-120415000D01*
%TO.N,SPI_MOSI*%
X131400000Y-117469213D02*
X131400000Y-106300000D01*
X134830787Y-120900000D02*
X131400000Y-117469213D01*
X135160000Y-120900000D02*
X134830787Y-120900000D01*
X131400000Y-106300000D02*
X131835000Y-105865000D01*
X131835000Y-105865000D02*
X131835000Y-99329314D01*
%TO.N,PCB_LED_0*%
X142900000Y-85634314D02*
X142900000Y-85634314D01*
%TO.N,Net-(R3-Pad2)*%
X108610000Y-88384314D02*
X111110000Y-88384314D01*
%TO.N,RESET_PIN*%
X181500000Y-88384314D02*
X184675000Y-88384314D01*
X184750000Y-96409314D02*
X184750000Y-88459314D01*
X181465686Y-88350000D02*
X181500000Y-88384314D01*
X119930000Y-84134314D02*
X119905000Y-84109314D01*
X184675000Y-88384314D02*
X184750000Y-88459314D01*
X121745000Y-84134314D02*
X119930000Y-84134314D01*
X179750000Y-88350000D02*
X181465686Y-88350000D01*
%TO.N,PCB_LED_1*%
X135800000Y-89034314D02*
X135800000Y-92734314D01*
X135800000Y-92734314D02*
X136065000Y-92999314D01*
X136065000Y-92999314D02*
X137405000Y-92999314D01*
%TO.N,BOOT_MODE*%
X137405000Y-107429314D02*
X137405000Y-98079314D01*
X137400000Y-107434314D02*
X137405000Y-107429314D01*
X202000000Y-88384314D02*
X198825000Y-88384314D01*
X202600000Y-107334314D02*
X202620000Y-107314314D01*
X198750000Y-96409314D02*
X198750000Y-88459314D01*
X198750000Y-98134314D02*
X198750000Y-96409314D01*
X198825000Y-88384314D02*
X198750000Y-88459314D01*
X202620000Y-107314314D02*
X202620000Y-102004314D01*
X202620000Y-102004314D02*
X198750000Y-98134314D01*
%TO.N,PCB_LED_2*%
X142900000Y-92134314D02*
X142900000Y-92134314D01*
%TO.N,Net-(R12-Pad1)*%
X78450000Y-132500000D02*
X78750000Y-132500000D01*
X78750000Y-132500000D02*
X81550000Y-129700000D01*
%TO.N,Net-(R10-Pad2)*%
X82084314Y-121434314D02*
X81900000Y-121250000D01*
X84700000Y-121434314D02*
X82084314Y-121434314D01*
%TO.N,Net-(R11-Pad2)*%
X93050000Y-118934314D02*
X93050000Y-115934314D01*
%TO.N,Net-(U4A-+)*%
X78450000Y-126900000D02*
X77100000Y-125550000D01*
X78450000Y-129700000D02*
X78450000Y-126900000D01*
X78600000Y-113700000D02*
X81200000Y-113700000D01*
X81200000Y-113700000D02*
X81730000Y-114230000D01*
X81730000Y-114230000D02*
X81730000Y-115409314D01*
X77100000Y-115200000D02*
X78600000Y-113700000D01*
X77100000Y-125550000D02*
X77100000Y-115200000D01*
%TO.N,Net-(U4B-+)*%
X84270000Y-115409314D02*
X84270000Y-117904314D01*
X84270000Y-117904314D02*
X84700000Y-118334314D01*
X84700000Y-118334314D02*
X82515686Y-118334314D01*
X82515686Y-118334314D02*
X82050000Y-118800000D01*
X82084314Y-118334314D02*
X82050000Y-118300000D01*
%TO.N,Net-(U4C-+)*%
X89950000Y-115934314D02*
X89950000Y-112934314D01*
X84865686Y-112500000D02*
X84270000Y-111904314D01*
X89950000Y-112934314D02*
X89515686Y-112500000D01*
X84270000Y-111904314D02*
X84270000Y-110459314D01*
X89515686Y-112500000D02*
X84865686Y-112500000D01*
%TO.N,Net-(R27-Pad2)*%
X140540000Y-114384314D02*
X140540000Y-110734314D01*
%TO.N,Net-(R28-Pad2)*%
X145620000Y-114384314D02*
X145620000Y-110734314D01*
%TO.N,Net-(R29-Pad2)*%
X150700000Y-114384314D02*
X150700000Y-110734314D01*
%TO.N,Net-(R30-Pad2)*%
X155780000Y-114384314D02*
X155780000Y-110734314D01*
%TO.N,GPIO_0*%
X143080000Y-103114314D02*
X143080000Y-97474314D01*
X143080000Y-106480000D02*
X143080000Y-103114314D01*
X119950000Y-106450000D02*
X119900000Y-106400000D01*
X119900000Y-102344314D02*
X119905000Y-102339314D01*
X143100000Y-106500000D02*
X143080000Y-106480000D01*
X143080000Y-97474314D02*
X143420000Y-97134314D01*
X119905000Y-102339314D02*
X119905000Y-98079314D01*
X119900000Y-106400000D02*
X119900000Y-102344314D01*
%TO.N,GPIO_1*%
X124215000Y-104034314D02*
X124215000Y-99329314D01*
X146710000Y-97134314D02*
X146710000Y-101664314D01*
X146710000Y-101664314D02*
X148160000Y-103114314D01*
%TO.N,GPIO_2*%
X150000000Y-99874314D02*
X153240000Y-103114314D01*
X150000000Y-97134314D02*
X150000000Y-99874314D01*
X121200000Y-96834314D02*
X119930000Y-96834314D01*
X135700000Y-97834314D02*
X135700000Y-103634314D01*
X119930000Y-96834314D02*
X119905000Y-96809314D01*
%TO.N,GPIO_3*%
X153290000Y-97134314D02*
X153290000Y-98084314D01*
X133105000Y-101839314D02*
X133105000Y-99329314D01*
X133500000Y-102234314D02*
X133105000Y-101839314D01*
X153290000Y-98084314D02*
X158320000Y-103114314D01*
%TO.N,Net-(R35-Pad2)*%
X162100000Y-114384314D02*
X162100000Y-110734314D01*
%TO.N,Net-(R36-Pad2)*%
X167180000Y-114384314D02*
X167180000Y-110734314D01*
%TO.N,Net-(R37-Pad2)*%
X172260000Y-114384314D02*
X172260000Y-110734314D01*
%TO.N,Net-(R38-Pad2)*%
X177340000Y-114384314D02*
X177340000Y-110734314D01*
%TO.N,GPIO_4*%
X162060000Y-100534314D02*
X158900000Y-100534314D01*
X139700000Y-99114312D02*
X139700000Y-95934314D01*
X156580000Y-98214314D02*
X156580000Y-97134314D01*
X164640000Y-103114314D02*
X162060000Y-100534314D01*
X139700000Y-95934314D02*
X139305000Y-95539314D01*
X139305000Y-95539314D02*
X137405000Y-95539314D01*
X158900000Y-100534314D02*
X156580000Y-98214314D01*
%TO.N,GPIO_5*%
X140400000Y-98414313D02*
X140400000Y-95234314D01*
X140400000Y-95234314D02*
X139435000Y-94269314D01*
X168120000Y-101514314D02*
X169720000Y-103114314D01*
X159870000Y-97134314D02*
X164250000Y-101514314D01*
X139435000Y-94269314D02*
X137405000Y-94269314D01*
X140900001Y-98914314D02*
X140400000Y-98414313D01*
X164250000Y-101514314D02*
X168120000Y-101514314D01*
%TO.N,GPIO_6*%
X172600000Y-100914314D02*
X174800000Y-103114314D01*
X139135000Y-91729314D02*
X137405000Y-91729314D01*
X165200000Y-100914314D02*
X172600000Y-100914314D01*
X141000000Y-93594314D02*
X139135000Y-91729314D01*
X163000000Y-97134314D02*
X163000000Y-98714314D01*
X163000000Y-98714314D02*
X165200000Y-100914314D01*
X141000000Y-97614314D02*
X141000000Y-93594314D01*
X141700000Y-98314314D02*
X141000000Y-97614314D01*
%TO.N,GPIO_7*%
X166000000Y-98614314D02*
X167700000Y-100314314D01*
X141945000Y-97334314D02*
X142000000Y-97279314D01*
X166000000Y-97134314D02*
X166000000Y-98614314D01*
X142000000Y-97279314D02*
X142000000Y-93324314D01*
X167700000Y-100314314D02*
X177080000Y-100314314D01*
X139135000Y-90459314D02*
X137405000Y-90459314D01*
X177080000Y-100314314D02*
X179880000Y-103114314D01*
X142000000Y-93324314D02*
X139135000Y-90459314D01*
%TO.N,Net-(R43-Pad2)*%
X183610000Y-110764314D02*
X183640000Y-110734314D01*
X183610000Y-114384314D02*
X183610000Y-110764314D01*
%TO.N,Net-(R44-Pad2)*%
X188720000Y-114384314D02*
X188720000Y-110734314D01*
%TO.N,Net-(R45-Pad2)*%
X193800000Y-114384314D02*
X193800000Y-110734314D01*
%TO.N,Net-(R46-Pad2)*%
X198880000Y-114384314D02*
X198880000Y-110734314D01*
%TO.N,GPIO_8*%
X183380000Y-99714314D02*
X186180000Y-102514314D01*
X186180000Y-102514314D02*
X186180000Y-103114314D01*
X170200000Y-99714314D02*
X183380000Y-99714314D01*
X169000000Y-98514314D02*
X170200000Y-99714314D01*
X169000000Y-97134314D02*
X169000000Y-98514314D01*
%TO.N,GPIO_9*%
X136125000Y-84109314D02*
X137405000Y-84109314D01*
X172290000Y-98004314D02*
X173400000Y-99114314D01*
X172290000Y-97134314D02*
X172290000Y-98004314D01*
X133200000Y-95034314D02*
X133200000Y-87034314D01*
X133200000Y-87034314D02*
X136125000Y-84109314D01*
X173400000Y-99114314D02*
X187260000Y-99114314D01*
X187260000Y-99114314D02*
X191260000Y-103114314D01*
%TO.N,GPIO_10*%
X191740000Y-98514314D02*
X196340000Y-103114314D01*
X135935000Y-82839314D02*
X137405000Y-82839314D01*
X132300000Y-86474314D02*
X135935000Y-82839314D01*
X175580000Y-97134314D02*
X176960000Y-98514314D01*
X132300000Y-94234314D02*
X132300000Y-86474314D01*
X176960000Y-98514314D02*
X191740000Y-98514314D01*
%TO.N,GPIO_11*%
X178870000Y-97134314D02*
X179650000Y-97914314D01*
X179650000Y-97914314D02*
X196220000Y-97914314D01*
X119940000Y-93034314D02*
X119905000Y-92999314D01*
X196220000Y-97914314D02*
X201420000Y-103114314D01*
X121745000Y-93034314D02*
X119940000Y-93034314D01*
%TD*%
M02*
